<svg xmlns="http://www.w3.org/2000/svg" viewBox="0 0 101.13 163.08"><defs><style>.cls-1{fill:#f94616}</style></defs><g id="Capa_2" data-name="Capa 2"><g id="Capa_3" data-name="Capa 3"><path class="cls-1" d="M50.56 83.08A50.48 50.48 0 01.1 132.58a50.48 50.48 0 0150.46-49.5zm50.5 49.5a50.48 50.48 0 01-50.46-49.5 50.48 50.48 0 0150.46 49.5z"/><path class="cls-1" d="M101.06 132.58a50.48 50.48 0 01-50.46-49.5 50.48 50.48 0 0150.46 49.5zm-50.5-49.5A50.48 50.48 0 01.1 132.58a50.48 50.48 0 0150.46-49.5z"/><path class="cls-1" d="M101.06 99.08a50.48 50.48 0 01-50.46-49.5 50.48 50.48 0 0150.46 49.5zm-50.5-49.5A50.48 50.48 0 01.1 99.08a50.48 50.48 0 0150.46-49.5z"/><circle class="cls-1" cx="50.33" cy="138.08" r="25"/><path class="cls-1" d="M0 50.57L50.57 0l50.56 50.57H0z"/></g></g></svg>