<svg xmlns="http://www.w3.org/2000/svg" viewBox="0 0 225.97 227.36"><defs><style>.cls-1{fill:#f94616}</style></defs><g id="Capa_2" data-name="Capa 2"><g id="Capa_1-2" data-name="Capa 1"><g id="_Grupo_" data-name="&lt;Grupo&gt;"><circle id="_Trazado_" data-name="&lt;Trazado&gt;" class="cls-1" cx="112.98" cy="113.68" r="56.1"/><path id="_Trazado_2" data-name="&lt;Trazado&gt;" class="cls-1" d="M159.72 113.68A46.74 46.74 0 11113 66.94a46.74 46.74 0 0146.72 46.74z"/><g id="_Grupo_2" data-name="&lt;Grupo&gt;"><g id="_Grupo_3" data-name="&lt;Grupo&gt;"><path id="_Trazado_compuesto_" data-name="&lt;Trazado compuesto&gt;" class="cls-1" d="M103.73 7.55H98V0h27c10.88 0 18.52 6.85 18.52 18.17 0 10.36-6.76 15.45-11.15 16.41v.18a6.8 6.8 0 012.64 2.81l7.46 14.83c.87 1.84 2.28 2 4.38 2H148V62h-4.3c-4.83 0-6.59-.62-8.61-4.65l-8.42-16.68c-1.58-2.9-2.72-3.34-6.15-3.34h-8.07V62h-8.78zm20.19 22.2c6.67 0 10.62-4.3 10.62-11.23s-3.95-11-10.44-11h-11.59v22.2z"/></g><g id="_Grupo_4" data-name="&lt;Grupo&gt;"><path id="_Trazado_compuesto_2" data-name="&lt;Trazado compuesto&gt;" class="cls-1" d="M43.12 33.26l-4.62 3.35-4.44-6.11 21.87-15.89c8.81-6.39 19-5.34 25.67 3.82 6.09 8.38 3.61 16.47.63 19.83l.1.14a6.77 6.77 0 013.78.72l14.76 7.62c1.79 1 3 .29 4.73-1l.93-.67 4.47 6.16-3.48 2.53c-3.9 2.84-5.68 3.37-9.69 1.29l-16.66-8.54c-3-1.41-4.16-1.1-6.93.91l-6.53 4.75 14.49 20-7.1 5.16zm29.38 6.09c5.4-3.91 6.07-9.72 2-15.33s-9.65-6.55-14.9-2.73l-9.38 6.81 13.05 18z"/></g><g id="_Grupo_5" data-name="&lt;Grupo&gt;"><path id="_Trazado_compuesto_3" data-name="&lt;Trazado compuesto&gt;" class="cls-1" d="M9.19 89.68l-1.76 5.43-7.18-2.33L8.6 67.07c3.36-10.35 12.24-15.5 23-12 9.84 3.2 12.6 11.2 12.16 15.67l.17.05a6.8 6.8 0 013.48-1.63l16.41-2.51c2-.27 2.63-1.55 3.28-3.55l.36-1.1 7.18 2.34-1.33 4.08c-1.49 4.6-2.62 6.08-7.08 6.75L47.77 78c-3.25.61-4 1.55-5.07 4.81l-2.5 7.68 23.46 7.62L61 106.5zm27.36-12.33c2.06-6.35-.81-11.43-7.41-13.58s-11.65.37-13.66 6.55l-3.58 11L33 88.2z"/></g><g id="_Grupo_6" data-name="&lt;Grupo&gt;"><path id="_Trazado_compuesto_4" data-name="&lt;Trazado compuesto&gt;" class="cls-1" d="M14.91 155.28l1.76 5.42-7.18 2.3-8.35-25.68c-3.36-10.35.79-19.73 11.56-23.23 9.85-3.2 16.78 1.66 19.05 5.53l.17-.05a6.73 6.73 0 011.85-3.37l11.81-11.68c1.48-1.41 1.21-2.79.56-4.8l-.35-1.08L53 96.3l1.33 4.09c1.49 4.6 1.45 6.45-1.77 9.62l-13.29 13.17c-2.26 2.4-2.33 3.62-1.27 6.87l2.49 7.68L64 130.11l2.71 8.35zm14.88-26.07c-2.06-6.34-7.37-8.77-14-6.62s-9.21 7.14-7.2 13.32l3.58 11 21.11-6.86z"/></g><g id="_Grupo_7" data-name="&lt;Grupo&gt;"><path id="_Trazado_compuesto_5" data-name="&lt;Trazado compuesto&gt;" class="cls-1" d="M58.09 205l4.61 3.35-4.43 6.11-21.87-15.91c-8.81-6.4-11-16.43-4.31-25.59 6.09-8.38 14.55-8.52 18.67-6.72l.1-.15a6.76 6.76 0 01-.48-3.81l2.69-16.39c.37-2-.66-3-2.37-4.21l-.92-.67 4.44-6.11 3.48 2.53c3.9 2.84 5 4.36 4.22 8.82l-3 18.44c-.43 3.27.24 4.3 3 6.31l6.53 4.75 14.49-20 7.14 5.25zm-3.28-29.83c-5.4-3.92-11.12-2.77-15.2 2.84s-3.25 11.2 2 15l9.39 6.81 13.05-18z"/></g><g id="_Grupo_8" data-name="&lt;Grupo&gt;"><path id="_Trazado_compuesto_6" data-name="&lt;Trazado compuesto&gt;" class="cls-1" d="M122.24 219.81h5.7v7.55h-27c-10.88 0-18.52-6.85-18.52-18.17 0-10.36 6.76-15.45 11.15-16.42v-.17a6.8 6.8 0 01-2.64-2.81L83.44 175c-.87-1.85-2.28-2-4.38-2h-1.15v-7.55h4.3c4.83 0 6.59.61 8.61 4.65l8.42 16.68c1.58 2.89 2.72 3.33 6.15 3.33h8.07v-24.72h8.78zm-20.19-22.21c-6.67 0-10.62 4.3-10.62 11.24s3.95 11 10.44 11h11.59V197.6z"/></g><g id="_Grupo_9" data-name="&lt;Grupo&gt;"><path id="_Trazado_compuesto_7" data-name="&lt;Trazado compuesto&gt;" class="cls-1" d="M182.85 194.1l4.62-3.35 4.43 6.1-21.9 15.89c-8.81 6.4-19 5.35-25.67-3.81-6.09-8.38-3.61-16.47-.63-19.83l-.1-.14a6.73 6.73 0 01-3.78-.73l-14.76-7.61c-1.79-1-3-.29-4.73.94l-.93.67-4.43-6.1 3.48-2.53c3.9-2.84 5.68-3.37 9.69-1.29l16.62 8.54c3 1.41 4.16 1.1 6.93-.92l6.53-4.74-14.5-20 7.11-5.16zm-29.38-6.1c-5.4 3.92-6.07 9.72-2 15.33s9.64 6.56 14.9 2.74l9.37-6.81-13.05-18z"/></g><g id="_Grupo_10" data-name="&lt;Grupo&gt;"><path id="_Trazado_compuesto_8" data-name="&lt;Trazado compuesto&gt;" class="cls-1" d="M216.78 137.67l1.76-5.42 7.18 2.33-8.35 25.71c-3.36 10.35-12.24 15.5-23 12-9.85-3.2-12.6-11.2-12.16-15.67l-.17-.06a6.77 6.77 0 01-3.48 1.64l-16.41 2.51c-2 .27-2.63 1.55-3.28 3.55l-.35 1.08-7.19-2.34 1.33-4.09c1.49-4.59 2.62-6.07 7.08-6.74l18.46-2.86c3.25-.61 4-1.56 5.07-4.81l2.5-7.68-23.46-7.62 2.71-8.35zM189.42 150c-2.06 6.34.81 11.43 7.41 13.57s11.65-.36 13.66-6.54l3.58-11-21.07-6.87z"/></g><g id="_Grupo_11" data-name="&lt;Grupo&gt;"><path id="_Trazado_compuesto_9" data-name="&lt;Trazado compuesto&gt;" class="cls-1" d="M211.06 72.08l-1.76-5.42 7.18-2.34L224.83 90c3.36 10.35-.79 19.73-11.56 23.23-9.85 3.2-16.78-1.65-19.05-5.53l-.17.06a6.74 6.74 0 01-1.86 3.37l-11.8 11.68c-1.48 1.4-1.21 2.79-.56 4.8l.35 1.08-7.18 2.36-1.33-4.05c-1.49-4.59-1.45-6.45 1.77-9.61l13.26-13.17c2.26-2.4 2.33-3.62 1.27-6.88l-2.5-7.68L162 97.25l-2.71-8.35zm-14.88 26.06c2.06 6.35 7.37 8.78 14 6.63s9.21-7.15 7.2-13.32l-3.58-11-21.12 6.86z"/></g><g id="_Grupo_12" data-name="&lt;Grupo&gt;"><path id="_Trazado_compuesto_10" data-name="&lt;Trazado compuesto&gt;" class="cls-1" d="M167.88 22.38L163.26 19l4.44-6.1 21.87 15.89c8.81 6.4 11 16.42 4.31 25.58-6.09 8.38-14.55 8.53-18.67 6.73l-.1.14a6.81 6.81 0 01.48 3.82l-2.69 16.41c-.37 2 .66 3 2.37 4.21l.92.67-4.44 6.11-3.48-2.53c-3.9-2.84-5-4.37-4.22-8.82l3-18.44c.43-3.28-.24-4.3-3-6.31l-6.53-4.75-14.5 20-7.1-5.16zm3.28 29.83c5.4 3.92 11.12 2.76 15.2-2.85s3.25-11.2-2-15L175 27.54l-13 18z"/></g></g></g></g></g></svg>