<svg xmlns="http://www.w3.org/2000/svg" viewBox="0 0 204.96 225.63"><defs><style>.cls-1{fill:#f94616}</style></defs><g id="Capa_2" data-name="Capa 2"><g id="Capa_1-2" data-name="Capa 1"><g id="_Grupo_" data-name="&lt;Grupo&gt;"><circle id="_Trazado_" data-name="&lt;Trazado&gt;" class="cls-1" cx="102.4" cy="73.51" r="36.28"/><path id="_Trazado_2" data-name="&lt;Trazado&gt;" class="cls-1" d="M132.62 73.51a30.22 30.22 0 11-30.22-30.22 30.22 30.22 0 0130.22 30.22z"/><g id="_Grupo_2" data-name="&lt;Grupo&gt;"><g id="_Grupo_3" data-name="&lt;Grupo&gt;"><path id="_Trazado_compuesto_" data-name="&lt;Trazado compuesto&gt;" class="cls-1" d="M96.42 4.88h-3.69V0h17.48c7 0 12 4.43 12 11.75 0 6.7-4.37 10-7.2 10.61v.12a4.37 4.37 0 011.7 1.81l4.82 9.59c.57 1.2 1.48 1.31 2.84 1.31h.74v4.88h-2.81c-3.12 0-4.26-.4-5.56-3l-5.45-10.78c-1-1.87-1.76-2.16-4-2.16h-5.22v16h-5.65zm13 14.36c4.31 0 6.87-2.78 6.87-7.26s-2.56-7.1-6.75-7.1h-7.5v14.36z"/></g><g id="_Grupo_4" data-name="&lt;Grupo&gt;"><path id="_Trazado_compuesto_2" data-name="&lt;Trazado compuesto&gt;" class="cls-1" d="M57.22 21.51l-3 2.16-2.87-4L65.51 9.45C71.2 5.31 77.8 6 82.11 11.92c3.93 5.41 2.33 10.65.4 12.82l.07.09a4.32 4.32 0 012.42.47l9.54 4.92c1.16.63 2 .19 3.07-.61l.59-.43 2.87 4-2.25 1.63c-2.52 1.84-3.67 2.18-6.26.84l-10.73-5.57c-1.93-.92-2.69-.72-4.48.59l-4.23 3.07 9.38 12.9L77.91 50zm19 3.94c3.49-2.54 3.92-6.29 1.29-9.92s-6.24-4.23-9.63-1.77l-6.07 4.41 8.44 11.62z"/></g><g id="_Grupo_5" data-name="&lt;Grupo&gt;"><path id="_Trazado_compuesto_3" data-name="&lt;Trazado compuesto&gt;" class="cls-1" d="M35.28 58l-1.14 3.5L29.5 60l5.4-16.62c2.18-6.7 7.92-10 14.88-7.76 6.37 2.07 8.15 7.24 7.86 10.13h.11A4.32 4.32 0 0160 44.72l10.62-1.62c1.31-.18 1.7-1 2.12-2.3l.23-.7 4.64 1.51-.86 2.64c-1 3-1.7 3.93-4.58 4.36l-11.94 1.85c-2.1.4-2.6 1-3.28 3.11l-1.61 5 15.16 4.9-1.75 5.4zM53 50c1.34-4.1-.52-7.39-4.78-8.77s-7.54.24-8.84 4.23L37 52.59 50.69 57z"/></g><g id="_Grupo_6" data-name="&lt;Grupo&gt;"><path id="_Trazado_compuesto_4" data-name="&lt;Trazado compuesto&gt;" class="cls-1" d="M39 100.41l1.14 3.5-4.64 1.51-5.42-16.62c-2.18-6.69.51-12.76 7.47-15 6.37-2.07 10.85 1.07 12.32 3.57h.11a4.37 4.37 0 011.2-2.18l7.63-7.55c1-.91.79-1.81.37-3.11l-.23-.7 4.64-1.51.86 2.65c1 3 .94 4.17-1.14 6.22l-8.57 8.51c-1.47 1.55-1.51 2.34-.83 4.45l1.62 5 15.16-4.93 1.76 5.4zm9.6-16.86c-1.33-4.1-4.76-5.67-9-4.28s-6 4.62-4.66 8.61L37.23 95l13.65-4.44z"/></g><g id="_Grupo_7" data-name="&lt;Grupo&gt;"><path id="_Trazado_compuesto_5" data-name="&lt;Trazado compuesto&gt;" class="cls-1" d="M66.9 132.55l3 2.17-2.9 3.94-14.12-10.27c-5.7-4.14-7.09-10.62-2.79-16.55 3.94-5.41 9.41-5.51 12.07-4.35l.07-.09a4.32 4.32 0 01-.31-2.47l1.74-10.59c.24-1.3-.43-1.93-1.53-2.73l-.6-.43 2.87-4 2.25 1.64c2.53 1.83 3.21 2.82 2.73 5.7l-1.93 11.92c-.27 2.12.16 2.78 2 4.09l4.22 3.06L83 100.74l4.59 3.34zm-2.12-19.29c-3.49-2.54-7.19-1.79-9.82 1.84s-2.11 7.24 1.29 9.71l6.06 4.4 8.44-11.62z"/></g><g id="_Grupo_8" data-name="&lt;Grupo&gt;"><path id="_Trazado_compuesto_6" data-name="&lt;Trazado compuesto&gt;" class="cls-1" d="M108.39 142.14h3.68V147H94.59c-7 0-12-4.43-12-11.75 0-6.7 4.37-10 7.21-10.62v-.11a4.34 4.34 0 01-1.71-1.82l-4.82-9.59c-.57-1.19-1.48-1.3-2.84-1.3h-.74V107h2.81c3.13 0 4.26.39 5.57 3l5.44 10.79c1 1.87 1.76 2.16 4 2.16h5.22V107h5.68zm-13.06-14.36c-4.31 0-6.87 2.78-6.87 7.26s2.56 7.1 6.76 7.1h7.49v-14.36z"/></g><g id="_Grupo_9" data-name="&lt;Grupo&gt;"><path id="_Trazado_compuesto_7" data-name="&lt;Trazado compuesto&gt;" class="cls-1" d="M147.58 125.51l3-2.17 2.86 4-14.14 10.28c-5.7 4.08-12.3 3.38-16.6-2.52-3.94-5.42-2.34-10.65-.41-12.82l-.07-.09a4.43 4.43 0 01-2.44-.47l-9.54-4.93c-1.16-.63-2-.19-3.06.62l-.6.43-2.87-4 2.25-1.63c2.52-1.84 3.68-2.18 6.27-.84l10.77 5.57c1.93.92 2.69.71 4.48-.59l4.23-3.07-9.38-12.9L126.9 97zm-19-3.94c-3.49 2.53-3.92 6.28-1.29 9.91s6.24 4.24 9.64 1.77l6.06-4.4-8.44-11.62z"/></g><g id="_Grupo_10" data-name="&lt;Grupo&gt;"><path id="_Trazado_compuesto_8" data-name="&lt;Trazado compuesto&gt;" class="cls-1" d="M169.52 89l1.14-3.5 4.64 1.5-5.4 16.63c-2.18 6.69-7.91 10-14.88 7.76-6.36-2.07-8.14-7.24-7.86-10.14h-.11a4.41 4.41 0 01-2.25 1.06l-10.62 1.62c-1.31.17-1.69 1-2.12 2.3l-.22.7-4.65-1.51.86-2.64c1-3 1.7-3.93 4.58-4.37l11.94-1.85c2.1-.39 2.6-1 3.28-3.11l1.62-5-15.17-4.9 1.75-5.4zm-17.69 8c-1.33 4.1.52 7.39 4.79 8.78s7.53-.24 8.83-4.23l2.32-7.13L154.11 90z"/></g><g id="_Grupo_11" data-name="&lt;Grupo&gt;"><path id="_Trazado_compuesto_9" data-name="&lt;Trazado compuesto&gt;" class="cls-1" d="M165.82 46.61l-1.14-3.51 4.64-1.51 5.4 16.63c2.18 6.69-.51 12.76-7.47 15-6.37 2.07-10.85-1.07-12.32-3.58h-.11a4.37 4.37 0 01-1.2 2.18L146 79.43c-1 .91-.79 1.81-.37 3.1l.23.71-4.64 1.5-.86-2.64c-1-3-.94-4.17 1.14-6.22l8.58-8.51c1.46-1.56 1.5-2.34.82-4.45l-1.61-5-15.17 4.93-1.76-5.4zm-9.62 16.85c1.33 4.1 4.76 5.67 9 4.29s6-4.62 4.66-8.62L167.58 52l-13.66 4.44z"/></g><g id="_Grupo_12" data-name="&lt;Grupo&gt;"><path id="_Trazado_compuesto_10" data-name="&lt;Trazado compuesto&gt;" class="cls-1" d="M137.9 14.47l-3-2.17 2.87-4 14.14 10.28c5.7 4.13 7.09 10.62 2.79 16.54-3.94 5.42-9.41 5.51-12.07 4.35l-.07.09a4.35 4.35 0 01.31 2.47l-1.73 10.6c-.24 1.3.42 1.92 1.52 2.72l.6.44-2.87 3.95-2.25-1.64c-2.52-1.83-3.21-2.82-2.73-5.7l1.93-11.93c.28-2.11-.15-2.78-1.95-4.08l-4.22-3.07-9.37 12.91-4.59-3.34zm2.1 19.29c3.49 2.54 7.19 1.79 9.83-1.84s2.1-7.24-1.3-9.71l-6.06-4.4-8.44 11.61z"/></g></g></g><g id="_Grupo_13" data-name="&lt;Grupo&gt;"><path id="_Trazado_compuesto_11" data-name="&lt;Trazado compuesto&gt;" class="cls-1" d="M4.86 196.56v-26.78L1 165.88h18.52l-5.75 3.9v27.76h5.11l10-8.77-2.2 11.69H1z"/><path id="_Trazado_compuesto_12" data-name="&lt;Trazado compuesto&gt;" class="cls-1" d="M41.85 186l2-.15v-6.72h-4.49v5.21h-7.45a4.3 4.3 0 01-.29-1.9c0-4.43 6.77-6.43 10.27-6.43 7 0 10 3.22 10 7v14.61l2.19 2.92L44 201l.53-3.66h-.09c-2.34 2.73-4.29 3.8-7 3.8-3.5 0-7.2-1.22-7.2-6.18s4.4-8.28 11.61-8.96zm-1.08 10.27a5.24 5.24 0 003.12-1.36v-6h-.58c-2.73.24-5 2-5 5a2.19 2.19 0 002.46 2.31z"/><path id="_Trazado_compuesto_13" data-name="&lt;Trazado compuesto&gt;" class="cls-1" d="M71.2 196.51v-26.73l-3.89-3.9h17.92c7.4 0 11.54 3.46 11.54 9.06 0 4.29-3.85 7-10.62 7.94v.1l3.56 1.12 7.89 13.1 3.55 3.26H89.61l-9.49-16.56v12.61l4.57 4H67.31zm10.33-14.41c3.94 0 6.33-1.66 6.33-6.48 0-5.3-3-6.33-5.85-6.33l-1.89.05v12.76z"/><path id="_Trazado_compuesto_14" data-name="&lt;Trazado compuesto&gt;" class="cls-1" d="M110.39 176.11v18.75h6.72V180l-2.92-3.41 11-.49v20.94l2.53 3.41-10.08.49.39-4.49h-.09c-2.29 3.17-4.87 4.63-7.45 4.63-4.48 0-8.09-3.12-8.09-7.6V180l-2.4-3.4z"/><path id="_Trazado_compuesto_15" data-name="&lt;Trazado compuesto&gt;" class="cls-1" d="M140.07 176c6 0 9.45 3.95 9.45 8.38v2.43H136c.14 5.36 3.5 7.8 6.77 7.8 3 0 4.38-1.22 6.18-2.78l1.12.49c-1.7 5.5-5 8.81-10.08 8.81-7.16 0-10.81-5.89-10.81-12.13.03-6.9 4.51-13 10.89-13zm2.48 7.94v-.68c0-2.48-.87-3.7-2.68-3.7-1.51 0-3.06 1.51-3.65 4.38z"/><path id="_Trazado_compuesto_16" data-name="&lt;Trazado compuesto&gt;" class="cls-1" d="M164.18 176a9.93 9.93 0 013.7.59v-7.74l-3.9-2.93 11.93-.48v31.65l2.63 3.41-10.18.49.54-3.66h-.1a9.26 9.26 0 01-6.77 3.8c-6.18 0-9.74-5.16-9.74-11.68 0-7.45 4.24-13.45 11.89-13.45zm2.14 19.63h1.56V180.1H166c-2.53 0-5.41 1.22-5.41 7.26s1.69 8.23 5.73 8.23z"/><path id="_Trazado_compuesto_17" data-name="&lt;Trazado compuesto&gt;" class="cls-1" d="M191.45 186l2.05-.15v-6.72H189v5.21h-7.45a4.15 4.15 0 01-.29-1.9c0-4.43 6.77-6.43 10.27-6.43 7 0 10 3.22 10 7v14.61l2.19 2.92-10.08.49.54-3.66h-.1c-2.34 2.73-4.28 3.8-7 3.8-3.51 0-7.21-1.22-7.21-6.18s4.38-8.31 11.58-8.99zm-1.07 10.27a5.24 5.24 0 003.12-1.36v-6h-.59c-2.72.24-5 2-5 5a2.19 2.19 0 002.47 2.31z"/></g><g id="_Grupo_14" data-name="&lt;Grupo&gt;"><path id="_Trazado_compuesto_18" data-name="&lt;Trazado compuesto&gt;" d="M2 221.52c.07 1.79 1.62 2.35 3.27 2.35 1.25 0 2.94-.28 2.94-1.81s-2-1.81-4-2.26-4-1.11-4-3.44 2.42-3.45 4.54-3.45c2.68 0 4.82.84 5 3.81h-2c-.14-1.55-1.51-2.05-2.82-2.05s-2.59.33-2.59 1.55c0 1.44 2.11 1.67 4 2.12s4 1.11 4 3.46c0 2.89-2.71 3.83-5.18 3.83-2.73 0-5-1.1-5.15-4.11z"/><path id="_Trazado_compuesto_19" data-name="&lt;Trazado compuesto&gt;" d="M23.19 225.31a2.72 2.72 0 01-1.44.32c-1 0-1.69-.56-1.69-1.88a5.38 5.38 0 01-4.28 1.88c-2.21 0-4-1-4-3.41 0-2.75 2.05-3.34 4.12-3.74s4.1-.28 4.1-1.79c0-1.74-1.44-2-2.71-2-1.69 0-2.94.52-3 2.31h-2c.11-3 2.44-4.07 5.15-4.07 2.19 0 4.56.49 4.56 3.34v6.26c0 .94 0 1.36.64 1.36a1.62 1.62 0 00.61-.12zm-3.25-6.24c-.77.56-2.28.59-3.62.82s-2.45.71-2.45 2.19c0 1.32 1.13 1.79 2.35 1.79 2.64 0 3.72-1.65 3.72-2.75z"/><path id="_Trazado_compuesto_20" data-name="&lt;Trazado compuesto&gt;" d="M24.91 208.55h2v6.29a4.09 4.09 0 013.88-1.93c3.74 0 5.6 3 5.6 6.4s-1.83 6.32-5.55 6.32a4.67 4.67 0 01-3.93-1.9v1.62h-2zm5.64 6.12c-2.68 0-3.71 2.31-3.71 4.59s1.08 4.61 3.83 4.61 3.65-2.33 3.65-4.7-1.18-4.5-3.77-4.5z"/><path id="_Trazado_compuesto_21" data-name="&lt;Trazado compuesto&gt;" d="M43.84 212.91c3.86 0 5.9 2.8 5.9 6.37s-2 6.35-5.9 6.35-5.91-2.8-5.91-6.35 2.07-6.37 5.91-6.37zm0 11c2.09 0 3.79-1.65 3.79-4.59s-1.7-4.61-3.79-4.61-3.79 1.65-3.79 4.61 1.69 4.55 3.79 4.55z"/><path id="_Trazado_compuesto_22" data-name="&lt;Trazado compuesto&gt;" d="M51.81 213.19h1.88v2.56h.05a4.41 4.41 0 014.47-2.84V215c-3.23 0-4.4 1.84-4.4 4.92v5.41h-2z"/><path id="_Trazado_compuesto_23" data-name="&lt;Trazado compuesto&gt;" d="M69.73 221.49a4.9 4.9 0 01-5.2 4.14c-3.88 0-5.72-2.68-5.84-6.4s2.4-6.32 5.72-6.32c4.31 0 5.63 4 5.51 7h-9.11a3.58 3.58 0 003.79 4 2.92 2.92 0 003.15-2.38zm-1.93-3.38a3.51 3.51 0 00-3.51-3.44 3.47 3.47 0 00-3.48 3.44z"/><path id="_Trazado_compuesto_24" data-name="&lt;Trazado compuesto&gt;" d="M73.12 221.52c.07 1.79 1.62 2.35 3.27 2.35 1.25 0 2.94-.28 2.94-1.81s-2-1.81-4-2.26-4-1.11-4-3.44 2.42-3.45 4.54-3.45c2.68 0 4.82.84 5 3.81h-2c-.14-1.55-1.51-2.05-2.83-2.05s-2.58.33-2.58 1.55c0 1.44 2.11 1.67 4 2.12s4 1.11 4 3.46c0 2.89-2.71 3.83-5.18 3.83-2.73 0-5-1.1-5.15-4.11z"/><path id="_Trazado_compuesto_25" data-name="&lt;Trazado compuesto&gt;" d="M100.51 225.31a2.7 2.7 0 01-1.43.32c-1 0-1.7-.56-1.7-1.88a5.38 5.38 0 01-4.28 1.88c-2.21 0-4-1-4-3.41 0-2.75 2-3.34 4.11-3.74s4.1-.28 4.1-1.79c0-1.74-1.44-2-2.71-2-1.69 0-2.94.52-3 2.31h-2c.11-3 2.44-4.07 5.15-4.07 2.19 0 4.56.49 4.56 3.34v6.26c0 .94 0 1.36.64 1.36a1.62 1.62 0 00.61-.12zm-3.25-6.24c-.77.56-2.28.59-3.62.82s-2.45.71-2.45 2.19c0 1.32 1.13 1.79 2.36 1.79 2.63 0 3.71-1.65 3.71-2.75z"/><path id="_Trazado_compuesto_26" data-name="&lt;Trazado compuesto&gt;" d="M102.28 208.55h2v16.8h-2z"/><path id="_Trazado_compuesto_27" data-name="&lt;Trazado compuesto&gt;" d="M109.89 213.19h2.42V215h-2.42v7.56c0 .91.25 1.08 1.5 1.08h.92v1.76h-1.53c-2.07 0-2.89-.42-2.89-2.66V215h-2.07v-1.76h2.07v-3.65h2z"/><path id="_Trazado_compuesto_28" data-name="&lt;Trazado compuesto&gt;" d="M124.22 221.49a4.9 4.9 0 01-5.2 4.14c-3.88 0-5.71-2.68-5.83-6.4s2.4-6.32 5.71-6.32c4.31 0 5.63 4 5.51 7h-9.11a3.58 3.58 0 003.79 4 2.94 2.94 0 003.16-2.38zm-1.93-3.38a3.5 3.5 0 00-7 0z"/><path id="_Trazado_compuesto_29" data-name="&lt;Trazado compuesto&gt;" d="M126.31 213.19h1.88v2.56h.05a4.41 4.41 0 014.47-2.84V215c-3.23 0-4.4 1.84-4.4 4.92v5.41h-2z"/><path id="_Trazado_compuesto_30" data-name="&lt;Trazado compuesto&gt;" d="M134.1 213.19h1.9v1.93a4.22 4.22 0 013.95-2.21c3.2 0 4.19 1.83 4.19 4.44v8h-2v-8.23a2.29 2.29 0 00-2.47-2.45c-2.43 0-3.6 1.62-3.6 3.81v6.87h-2z"/><path id="_Trazado_compuesto_31" data-name="&lt;Trazado compuesto&gt;" d="M157.66 225.31a2.7 2.7 0 01-1.43.32c-1 0-1.7-.56-1.7-1.88a5.37 5.37 0 01-4.28 1.88c-2.21 0-4-1-4-3.41 0-2.75 2-3.34 4.11-3.74 2.22-.42 4.1-.28 4.1-1.79 0-1.74-1.44-2-2.71-2-1.69 0-2.94.52-3 2.31h-2c.12-3 2.44-4.07 5.15-4.07 2.19 0 4.56.49 4.56 3.34v6.26c0 .94 0 1.36.64 1.36a1.62 1.62 0 00.61-.12zm-3.25-6.24c-.77.56-2.28.59-3.62.82s-2.45.71-2.45 2.19c0 1.32 1.13 1.79 2.36 1.79 2.63 0 3.71-1.65 3.71-2.75z"/><path id="_Trazado_compuesto_32" data-name="&lt;Trazado compuesto&gt;" d="M162 213.19h2.43V215H162v7.56c0 .91.26 1.08 1.51 1.08h.92v1.76h-1.53c-2.07 0-2.9-.42-2.9-2.66V215h-2.07v-1.76H160v-3.65h2z"/><path id="_Trazado_compuesto_33" data-name="&lt;Trazado compuesto&gt;" d="M168.3 211h-2v-2.45h2zm-2 2.19h2v12.16h-2z"/><path id="_Trazado_compuesto_34" data-name="&lt;Trazado compuesto&gt;" d="M176.55 225.35h-2.14l-4.52-12.16h2.24l3.41 10.14h.05l3.31-10.14h2.1z"/><path id="_Trazado_compuesto_35" data-name="&lt;Trazado compuesto&gt;" d="M187.38 212.91c3.86 0 5.9 2.8 5.9 6.37s-2 6.35-5.9 6.35-5.91-2.8-5.91-6.35 2.05-6.37 5.91-6.37zm0 11c2.09 0 3.79-1.65 3.79-4.59s-1.7-4.61-3.79-4.61-3.79 1.65-3.79 4.61 1.69 4.55 3.79 4.55z"/><path id="_Trazado_compuesto_36" data-name="&lt;Trazado compuesto&gt;" d="M196.63 221.52c.07 1.79 1.62 2.35 3.27 2.35 1.25 0 2.94-.28 2.94-1.81s-2-1.81-4-2.26-4-1.11-4-3.44 2.42-3.45 4.54-3.45c2.68 0 4.82.84 5 3.81h-2c-.15-1.55-1.51-2.05-2.83-2.05s-2.55.33-2.55 1.55c0 1.44 2.12 1.67 4 2.12s4 1.11 4 3.46c0 2.89-2.71 3.83-5.18 3.83-2.73 0-5-1.1-5.15-4.11z"/></g></g></g></svg>