<svg xmlns="http://www.w3.org/2000/svg" id="svg1031" version="1.1" viewBox="0 0 204.96 225.63"><defs id="defs973"><style id="style971">.cls-1{fill:#f94616}</style></defs><g data-name="Capa 2" id="Capa_2"><g data-name="Capa 1" id="Capa_1-2"><g data-name="&lt;Grupo&gt;" id="_Grupo_"><circle r="36.28" cy="73.51" cx="102.4" class="cls-1" data-name="&lt;Trazado&gt;" id="_Trazado_"/><path d="M132.62 73.51a30.22 30.22 0 11-30.22-30.22 30.22 30.22 0 0130.22 30.22z" class="cls-1" data-name="&lt;Trazado&gt;" id="_Trazado_2"/><g data-name="&lt;Grupo&gt;" id="_Grupo_2"><g data-name="&lt;Grupo&gt;" id="_Grupo_3"><path d="M96.42 4.88h-3.69V0h17.48c7 0 12 4.43 12 11.75 0 6.7-4.37 10-7.2 10.61v.12a4.37 4.37 0 011.7 1.81l4.82 9.59c.57 1.2 1.48 1.31 2.84 1.31h.74v4.88h-2.81c-3.12 0-4.26-.4-5.56-3l-5.45-10.78c-1-1.87-1.76-2.16-4-2.16h-5.22v16h-5.65zm13 14.36c4.31 0 6.87-2.78 6.87-7.26s-2.56-7.1-6.75-7.1h-7.5v14.36z" class="cls-1" data-name="&lt;Trazado compuesto&gt;" id="_Trazado_compuesto_"/></g><g data-name="&lt;Grupo&gt;" id="_Grupo_4"><path d="M57.22 21.51l-3 2.16-2.87-4L65.51 9.45C71.2 5.31 77.8 6 82.11 11.92c3.93 5.41 2.33 10.65.4 12.82l.07.09a4.32 4.32 0 012.42.47l9.54 4.92c1.16.63 2 .19 3.07-.61l.59-.43 2.87 4-2.25 1.63c-2.52 1.84-3.67 2.18-6.26.84l-10.73-5.57c-1.93-.92-2.69-.72-4.48.59l-4.23 3.07 9.38 12.9L77.91 50zm19 3.94c3.49-2.54 3.92-6.29 1.29-9.92s-6.24-4.23-9.63-1.77l-6.07 4.41 8.44 11.62z" class="cls-1" data-name="&lt;Trazado compuesto&gt;" id="_Trazado_compuesto_2"/></g><g data-name="&lt;Grupo&gt;" id="_Grupo_5"><path d="M35.28 58l-1.14 3.5L29.5 60l5.4-16.62c2.18-6.7 7.92-10 14.88-7.76 6.37 2.07 8.15 7.24 7.86 10.13h.11A4.32 4.32 0 0160 44.72l10.62-1.62c1.31-.18 1.7-1 2.12-2.3l.23-.7 4.64 1.51-.86 2.64c-1 3-1.7 3.93-4.58 4.36l-11.94 1.85c-2.1.4-2.6 1-3.28 3.11l-1.61 5 15.16 4.9-1.75 5.4zM53 50c1.34-4.1-.52-7.39-4.78-8.77s-7.54.24-8.84 4.23L37 52.59 50.69 57z" class="cls-1" data-name="&lt;Trazado compuesto&gt;" id="_Trazado_compuesto_3"/></g><g data-name="&lt;Grupo&gt;" id="_Grupo_6"><path d="M39 100.41l1.14 3.5-4.64 1.51-5.42-16.62c-2.18-6.69.51-12.76 7.47-15 6.37-2.07 10.85 1.07 12.32 3.57h.11a4.37 4.37 0 011.2-2.18l7.63-7.55c1-.91.79-1.81.37-3.11l-.23-.7 4.64-1.51.86 2.65c1 3 .94 4.17-1.14 6.22l-8.57 8.51c-1.47 1.55-1.51 2.34-.83 4.45l1.62 5 15.16-4.93 1.76 5.4zm9.6-16.86c-1.33-4.1-4.76-5.67-9-4.28s-6 4.62-4.66 8.61L37.23 95l13.65-4.44z" class="cls-1" data-name="&lt;Trazado compuesto&gt;" id="_Trazado_compuesto_4"/></g><g data-name="&lt;Grupo&gt;" id="_Grupo_7"><path d="M66.9 132.55l3 2.17-2.9 3.94-14.12-10.27c-5.7-4.14-7.09-10.62-2.79-16.55 3.94-5.41 9.41-5.51 12.07-4.35l.07-.09a4.32 4.32 0 01-.31-2.47l1.74-10.59c.24-1.3-.43-1.93-1.53-2.73l-.6-.43 2.87-4 2.25 1.64c2.53 1.83 3.21 2.82 2.73 5.7l-1.93 11.92c-.27 2.12.16 2.78 2 4.09l4.22 3.06L83 100.74l4.59 3.34zm-2.12-19.29c-3.49-2.54-7.19-1.79-9.82 1.84s-2.11 7.24 1.29 9.71l6.06 4.4 8.44-11.62z" class="cls-1" data-name="&lt;Trazado compuesto&gt;" id="_Trazado_compuesto_5"/></g><g data-name="&lt;Grupo&gt;" id="_Grupo_8"><path d="M108.39 142.14h3.68V147H94.59c-7 0-12-4.43-12-11.75 0-6.7 4.37-10 7.21-10.62v-.11a4.34 4.34 0 01-1.71-1.82l-4.82-9.59c-.57-1.19-1.48-1.3-2.84-1.3h-.74V107h2.81c3.13 0 4.26.39 5.57 3l5.44 10.79c1 1.87 1.76 2.16 4 2.16h5.22V107h5.68zm-13.06-14.36c-4.31 0-6.87 2.78-6.87 7.26s2.56 7.1 6.76 7.1h7.49v-14.36z" class="cls-1" data-name="&lt;Trazado compuesto&gt;" id="_Trazado_compuesto_6"/></g><g data-name="&lt;Grupo&gt;" id="_Grupo_9"><path d="M147.58 125.51l3-2.17 2.86 4-14.14 10.28c-5.7 4.08-12.3 3.38-16.6-2.52-3.94-5.42-2.34-10.65-.41-12.82l-.07-.09a4.43 4.43 0 01-2.44-.47l-9.54-4.93c-1.16-.63-2-.19-3.06.62l-.6.43-2.87-4 2.25-1.63c2.52-1.84 3.68-2.18 6.27-.84l10.77 5.57c1.93.92 2.69.71 4.48-.59l4.23-3.07-9.38-12.9L126.9 97zm-19-3.94c-3.49 2.53-3.92 6.28-1.29 9.91s6.24 4.24 9.64 1.77l6.06-4.4-8.44-11.62z" class="cls-1" data-name="&lt;Trazado compuesto&gt;" id="_Trazado_compuesto_7"/></g><g data-name="&lt;Grupo&gt;" id="_Grupo_10"><path d="M169.52 89l1.14-3.5 4.64 1.5-5.4 16.63c-2.18 6.69-7.91 10-14.88 7.76-6.36-2.07-8.14-7.24-7.86-10.14h-.11a4.41 4.41 0 01-2.25 1.06l-10.62 1.62c-1.31.17-1.69 1-2.12 2.3l-.22.7-4.65-1.51.86-2.64c1-3 1.7-3.93 4.58-4.37l11.94-1.85c2.1-.39 2.6-1 3.28-3.11l1.62-5-15.17-4.9 1.75-5.4zm-17.69 8c-1.33 4.1.52 7.39 4.79 8.78s7.53-.24 8.83-4.23l2.32-7.13L154.11 90z" class="cls-1" data-name="&lt;Trazado compuesto&gt;" id="_Trazado_compuesto_8"/></g><g data-name="&lt;Grupo&gt;" id="_Grupo_11"><path d="M165.82 46.61l-1.14-3.51 4.64-1.51 5.4 16.63c2.18 6.69-.51 12.76-7.47 15-6.37 2.07-10.85-1.07-12.32-3.58h-.11a4.37 4.37 0 01-1.2 2.18L146 79.43c-1 .91-.79 1.81-.37 3.1l.23.71-4.64 1.5-.86-2.64c-1-3-.94-4.17 1.14-6.22l8.58-8.51c1.46-1.56 1.5-2.34.82-4.45l-1.61-5-15.17 4.93-1.76-5.4zm-9.62 16.85c1.33 4.1 4.76 5.67 9 4.29s6-4.62 4.66-8.62L167.58 52l-13.66 4.44z" class="cls-1" data-name="&lt;Trazado compuesto&gt;" id="_Trazado_compuesto_9"/></g><g data-name="&lt;Grupo&gt;" id="_Grupo_12"><path d="M137.9 14.47l-3-2.17 2.87-4 14.14 10.28c5.7 4.13 7.09 10.62 2.79 16.54-3.94 5.42-9.41 5.51-12.07 4.35l-.07.09a4.35 4.35 0 01.31 2.47l-1.73 10.6c-.24 1.3.42 1.92 1.52 2.72l.6.44-2.87 3.95-2.25-1.64c-2.52-1.83-3.21-2.82-2.73-5.7l1.93-11.93c.28-2.11-.15-2.78-1.95-4.08l-4.22-3.07-9.37 12.91-4.59-3.34zm2.1 19.29c3.49 2.54 7.19 1.79 9.83-1.84s2.1-7.24-1.3-9.71l-6.06-4.4-8.44 11.61z" class="cls-1" data-name="&lt;Trazado compuesto&gt;" id="_Trazado_compuesto_10"/></g></g></g><g data-name="&lt;Grupo&gt;" id="_Grupo_13"><path d="M4.86 196.56v-26.78L1 165.88h18.52l-5.75 3.9v27.76h5.11l10-8.77-2.2 11.69H1z" class="cls-1" data-name="&lt;Trazado compuesto&gt;" id="_Trazado_compuesto_11"/><path d="M41.85 186l2-.15v-6.72h-4.49v5.21h-7.45a4.3 4.3 0 01-.29-1.9c0-4.43 6.77-6.43 10.27-6.43 7 0 10 3.22 10 7v14.61l2.19 2.92L44 201l.53-3.66h-.09c-2.34 2.73-4.29 3.8-7 3.8-3.5 0-7.2-1.22-7.2-6.18s4.4-8.28 11.61-8.96zm-1.08 10.27a5.24 5.24 0 003.12-1.36v-6h-.58c-2.73.24-5 2-5 5a2.19 2.19 0 002.46 2.31z" class="cls-1" data-name="&lt;Trazado compuesto&gt;" id="_Trazado_compuesto_12"/><path d="M71.2 196.51v-26.73l-3.89-3.9h17.92c7.4 0 11.54 3.46 11.54 9.06 0 4.29-3.85 7-10.62 7.94v.1l3.56 1.12 7.89 13.1 3.55 3.26H89.61l-9.49-16.56v12.61l4.57 4H67.31zm10.33-14.41c3.94 0 6.33-1.66 6.33-6.48 0-5.3-3-6.33-5.85-6.33l-1.89.05v12.76z" class="cls-1" data-name="&lt;Trazado compuesto&gt;" id="_Trazado_compuesto_13"/><path d="M110.39 176.11v18.75h6.72V180l-2.92-3.41 11-.49v20.94l2.53 3.41-10.08.49.39-4.49h-.09c-2.29 3.17-4.87 4.63-7.45 4.63-4.48 0-8.09-3.12-8.09-7.6V180l-2.4-3.4z" class="cls-1" data-name="&lt;Trazado compuesto&gt;" id="_Trazado_compuesto_14"/><path d="M140.07 176c6 0 9.45 3.95 9.45 8.38v2.43H136c.14 5.36 3.5 7.8 6.77 7.8 3 0 4.38-1.22 6.18-2.78l1.12.49c-1.7 5.5-5 8.81-10.08 8.81-7.16 0-10.81-5.89-10.81-12.13.03-6.9 4.51-13 10.89-13zm2.48 7.94v-.68c0-2.48-.87-3.7-2.68-3.7-1.51 0-3.06 1.51-3.65 4.38z" class="cls-1" data-name="&lt;Trazado compuesto&gt;" id="_Trazado_compuesto_15"/><path d="M164.18 176a9.93 9.93 0 013.7.59v-7.74l-3.9-2.93 11.93-.48v31.65l2.63 3.41-10.18.49.54-3.66h-.1a9.26 9.26 0 01-6.77 3.8c-6.18 0-9.74-5.16-9.74-11.68 0-7.45 4.24-13.45 11.89-13.45zm2.14 19.63h1.56V180.1H166c-2.53 0-5.41 1.22-5.41 7.26s1.69 8.23 5.73 8.23z" class="cls-1" data-name="&lt;Trazado compuesto&gt;" id="_Trazado_compuesto_16"/><path d="M191.45 186l2.05-.15v-6.72H189v5.21h-7.45a4.15 4.15 0 01-.29-1.9c0-4.43 6.77-6.43 10.27-6.43 7 0 10 3.22 10 7v14.61l2.19 2.92-10.08.49.54-3.66h-.1c-2.34 2.73-4.28 3.8-7 3.8-3.51 0-7.21-1.22-7.21-6.18s4.38-8.31 11.58-8.99zm-1.07 10.27a5.24 5.24 0 003.12-1.36v-6h-.59c-2.72.24-5 2-5 5a2.19 2.19 0 002.47 2.31z" class="cls-1" data-name="&lt;Trazado compuesto&gt;" id="_Trazado_compuesto_17"/></g></g></g></svg>