<svg xmlns="http://www.w3.org/2000/svg" viewBox="0 0 259.07 216.41"><defs><clipPath id="clip-path"><path d="M220.28 116.48A83 83 0 1162.45 80.65L29.37 47.56A44 44 0 0118 5.13a2 2 0 011.41-1.41 44 44 0 0140.73 9.8 38.55 38.55 0 0156-2.77 1.78 1.78 0 01.66.44l22.34 22.33h1.33a82.19 82.19 0 0159 27.93c1.79 2 3.49 4.15 5 6.28a82.75 82.75 0 0115.78 48.7z" fill="none"/></clipPath><style>.cls-5{fill:none}.cls-2{fill:#f94616}.cls-5,.cls-6,.cls-7{stroke:#f94616;stroke-linecap:round;stroke-linejoin:round}.cls-5,.cls-6{stroke-width:4px}.cls-6,.cls-7{fill:#fff}.cls-7{stroke-width:3.72px}</style></defs><g id="Capa_2" data-name="Capa 2"><g id="Capa_3" data-name="Capa 3"><path class="cls-2" d="M137.3 29.35a87.13 87.13 0 11-87.12 87.13 87.13 87.13 0 0187.12-87.13m0-4a91.13 91.13 0 1091.13 91.13 91.23 91.23 0 00-91.13-91.13z"/><circle cx="137.3" cy="116.48" r="83.06" stroke-width="8" stroke-dasharray="5.02 5.02" stroke-miterlimit="10" stroke="#f94616" fill="none"/><path class="cls-2" d="M137.3 37.46a79 79 0 11-79 79 79 79 0 0179-79m0-4a83 83 0 1083 83 83.07 83.07 0 00-83-83z"/><path class="cls-2" d="M137.3 37.46a79 79 0 11-79 79 79 79 0 0179-79m0-4a83 83 0 1083 83 83.07 83.07 0 00-83-83z"/><g clip-path="url(#clip-path)"><path class="cls-5" d="M153.28 156.21a30.78 30.78 0 10-40.68 12.14 30.77 30.77 0 0026.71 46.06"/><path class="cls-6" d="M60.42 16.5A41.91 41.91 0 0019.94 5.65a41.83 41.83 0 0010.84 40.49L148 163.4l29.64-29.64z"/><path class="cls-6" d="M207.13 104.3l-29.64 29.64L60.24 16.69a36.57 36.57 0 0155.12-3.95l.11-.1zM75.59 4.73a19.25 19.25 0 01-1.77 25.17"/><path class="cls-6" d="M89.22 2.2l16.39 16.39-5.02 5.01L80.55 3.55m41.92 45.22l-5.01 5.02 17.85 27.87 24.75 24.75 5.01-5.01 5.01-5.01-47.61-47.62z"/><path class="cls-5" transform="rotate(45 207.261 84.18)" d="M193.09 70h28.35v28.35h-28.35z"/><path class="cls-6" d="M187.22 84.18l-20.04-20.05h40.09l-20.05 20.05z"/><path class="cls-7" d="M200.44 159.37l-24.26 24.26-12.14-12.13-9.7-14.56 19.41-19.41 14.56 9.71 12.13 12.13z"/><path stroke-width="3.72" stroke-linecap="round" stroke-linejoin="round" stroke="#f94616" fill="none" d="M177.82 133.47l24.26-24.27 12.13 12.14 7.76 16.49-15.52 15.53-16.5-7.76-12.13-12.13z"/><path class="cls-7" d="M214.21 121.34l-50.16 50.16"/></g><circle cx="241.82" cy="40.67" r="11.32" fill="#faf49a"/><circle cx="15" cy="129.48" r="13" stroke="#bce4fa" stroke-width="4" stroke-miterlimit="10" fill="none"/><path d="M251.6 194.98l-21.56-21.56m0 21.56l21.56-21.56" stroke="#000" stroke-width="4" stroke-linecap="round" stroke-linejoin="round" fill="none"/><path d="M240.82 199.45v-30.5m-15.25 15.25h30.5" stroke-width="6" stroke="#000" stroke-linecap="round" stroke-linejoin="round" fill="none"/></g></g></svg>