<svg xmlns="http://www.w3.org/2000/svg" viewBox="0 0 317.07 216.77"><defs><clipPath id="clip-path"><path d="M114.32 133.64v37.62a31.18 31.18 0 00-31.19 31.19H45.51a31.18 31.18 0 00-31.19-31.19v-37.62a31.18 31.18 0 0031.19-31.19h37.62a31.18 31.18 0 0031.19 31.19z" fill="none"/></clipPath><style>.cls-12,.cls-6{fill:none}.cls-13,.cls-14,.cls-2,.cls-4,.cls-8,.cls-9{fill:#fff}.cls-3,.cls-7{fill:#bce4fa}.cls-12,.cls-13,.cls-14,.cls-3,.cls-4,.cls-6,.cls-8,.cls-9{stroke:#bce4fa;stroke-miterlimit:10}.cls-12,.cls-3,.cls-4{stroke-width:5px}.cls-13,.cls-6,.cls-8,.cls-9{stroke-width:2.5px}.cls-13,.cls-9{stroke-linecap:round}.cls-13{stroke-dasharray:1 5}.cls-14{stroke-width:4.26px}</style></defs><g id="Capa_2" data-name="Capa 2"><g id="Capa_3" data-name="Capa 3"><path class="cls-2" d="M44.47.16h210.96v106.99H44.47z"/><path class="cls-3" d="M14.11 102.79h100.21V203H14.11z"/><path class="cls-2" d="M62.05 179.19a12.37 12.37 0 01-1.8 2.85.48.48 0 01-.85-.18 12.74 12.74 0 01-.47-3.33 1.59 1.59 0 013.12.66zM50.4 172.2a12.6 12.6 0 01-2.7 2 .49.49 0 01-.73-.48 12.63 12.63 0 01.76-3.28 1.59 1.59 0 012.67 1.74zM42 161.5a12.63 12.63 0 01-3.24.91.48.48 0 01-.51-.7 12.45 12.45 0 011.88-2.79A1.59 1.59 0 0142 161.5zm-3.95-12.99a12.48 12.48 0 01-3.35-.31.48.48 0 01-.23-.84 12.66 12.66 0 012.76-1.93 1.59 1.59 0 01.82 3.08zM39 135a12.82 12.82 0 01-3-1.48.48.48 0 01.09-.87 12.79 12.79 0 013.27-.81A1.59 1.59 0 1139 135zm5.72-12.37a12.8 12.8 0 01-2.28-2.46.48.48 0 01.4-.78 12.71 12.71 0 013.33.41 1.59 1.59 0 11-1.45 2.83zm9.77-9.44a12.71 12.71 0 01-1.24-3.12.48.48 0 01.64-.58 12.21 12.21 0 013 1.58 1.59 1.59 0 01-2.37 2.12zM67 107.88a12.53 12.53 0 010-3.37.49.49 0 01.82-.31 12.55 12.55 0 012.2 2.54 1.59 1.59 0 11-3 1.14zm13.58-.49a12.84 12.84 0 011.16-3.15.48.48 0 01.87 0 12.65 12.65 0 011.15 3.16 1.59 1.59 0 11-3.18 0zm12.85 4.42a12.64 12.64 0 012.21-2.53.49.49 0 01.82.32 13.28 13.28 0 01-.06 3.4 1.59 1.59 0 11-3-1.15zm10.41 8.73a13 13 0 013-1.57.48.48 0 01.65.59 12.8 12.8 0 01-1.26 3.12 1.59 1.59 0 11-2.36-2.14zm6.59 11.88a12.92 12.92 0 013.34-.4.49.49 0 01.4.78 12.49 12.49 0 01-2.3 2.46 1.59 1.59 0 11-1.44-2.84zm1.9 13.46a12.83 12.83 0 013.26.82.48.48 0 01.09.87 12.9 12.9 0 01-3 1.47 1.59 1.59 0 11-.33-3.16zm-3.05 13.24a12.74 12.74 0 012.75 1.94.48.48 0 01-.23.84 12.75 12.75 0 01-3.35.29 1.59 1.59 0 01.83-3.07zm-7.59 11.26a12.92 12.92 0 011.87 2.8.48.48 0 01-.52.7 12.61 12.61 0 01-3.23-.92 1.6 1.6 0 011.88-2.58zm-11.13 7.8a12.78 12.78 0 01.75 3.28.49.49 0 01-.74.48 12.72 12.72 0 01-2.68-2 1.59 1.59 0 012.67-1.73zm-13.18 3.3a12.83 12.83 0 01-.48 3.33.48.48 0 01-.85.18 12.88 12.88 0 01-1.79-2.86 1.59 1.59 0 013.12-.65z"/><path class="cls-2" d="M36.65 150.35a12.83 12.83 0 01-2.84-1.79.48.48 0 01.18-.86 13 13 0 013.33-.46 1.59 1.59 0 01-.67 3.11zm6.99-11.65a13 13 0 01-2-2.7.48.48 0 01.47-.73 12.94 12.94 0 013.28.76 1.59 1.59 0 01-1.74 2.67zm10.7-8.37a13 13 0 01-.91-3.24.48.48 0 01.71-.51 12.35 12.35 0 012.78 1.88 1.59 1.59 0 01-2.58 1.87zm13-3.98a12.83 12.83 0 01.3-3.35.48.48 0 01.85-.22 12.3 12.3 0 011.92 2.75 1.59 1.59 0 11-3.07.82zm13.55.94a12.71 12.71 0 011.49-3 .48.48 0 01.86.1 12.41 12.41 0 01.82 3.26 1.59 1.59 0 01-3.17-.34zM93.21 133a12.59 12.59 0 012.47-2.29.48.48 0 01.77.4 12.44 12.44 0 01-.41 3.34 1.59 1.59 0 11-2.83-1.45zm9.44 9.79a12.81 12.81 0 013.13-1.24.48.48 0 01.58.65 13 13 0 01-1.58 3 1.6 1.6 0 01-2.13-2.38zM108 155.3a12.47 12.47 0 013.36-.05.48.48 0 01.31.82 12.55 12.55 0 01-2.54 2.2 1.57 1.57 0 01-2-.92 1.59 1.59 0 01.87-2.05zm.45 13.58a12.89 12.89 0 013.16 1.16.48.48 0 010 .87 12.65 12.65 0 01-3.16 1.15 1.59 1.59 0 110-3.18zM104 181.73a12.69 12.69 0 012.53 2.21.48.48 0 01-.31.82 12.79 12.79 0 01-3.36-.06 1.59 1.59 0 111.14-3zm-8.7 10.41a12.53 12.53 0 011.57 3 .48.48 0 01-.58.64 12.63 12.63 0 01-3.12-1.26 1.59 1.59 0 012.13-2.36zm-11.88 6.59a12.92 12.92 0 01.4 3.34.49.49 0 01-.78.4 12.78 12.78 0 01-2.46-2.3 1.59 1.59 0 112.84-1.44zM70 200.63a12.4 12.4 0 01-.83 3.26.47.47 0 01-.86.09 12.61 12.61 0 01-1.48-3 1.59 1.59 0 013.17-.33zm-13.27-3.05a12.5 12.5 0 01-1.94 2.75.48.48 0 01-.84-.23 12.83 12.83 0 01-.3-3.35 1.59 1.59 0 013.08.83zM45.46 190a12.57 12.57 0 01-2.8 1.87.48.48 0 01-.7-.51 12.94 12.94 0 01.93-3.24 1.59 1.59 0 012.57 1.88zm-7.8-11.14a12.58 12.58 0 01-3.28.75.48.48 0 01-.47-.73 12.58 12.58 0 012-2.69 1.59 1.59 0 111.73 2.67zm-3.29-13.18a12.77 12.77 0 01-3.37-.48.48.48 0 01-.18-.85 12.75 12.75 0 012.85-1.78 1.59 1.59 0 11.66 3.11z"/><path class="cls-2" d="M67.15 126.07a12.63 12.63 0 011.79-2.85.49.49 0 01.86.18 13.1 13.1 0 01.46 3.33 1.59 1.59 0 11-3.11-.66zm11.65 6.99a13.11 13.11 0 012.69-2 .48.48 0 01.73.48 12.68 12.68 0 01-.75 3.28 1.59 1.59 0 01-2.67-1.74zm8.37 10.7a12.63 12.63 0 013.24-.91.48.48 0 01.51.7 12.45 12.45 0 01-1.92 2.79 1.59 1.59 0 11-1.87-2.58zm3.98 12.99a12.48 12.48 0 013.35.31.48.48 0 01.22.84 12.4 12.4 0 01-2.72 1.93 1.59 1.59 0 01-.82-3.08zm-.94 13.56a13 13 0 013 1.48.48.48 0 01-.1.87 12.33 12.33 0 01-3.26.81 1.59 1.59 0 01.34-3.16zm-5.74 12.32a12.49 12.49 0 012.29 2.46.48.48 0 01-.4.78 12.86 12.86 0 01-3.34-.41 1.59 1.59 0 01-.69-2.14 1.57 1.57 0 012.14-.69zm-9.77 9.44a12.29 12.29 0 011.3 3.12.48.48 0 01-.65.58 12.61 12.61 0 01-3-1.58 1.59 1.59 0 012.37-2.12zm-12.5 5.31a12.53 12.53 0 010 3.37.49.49 0 01-.82.31 12.55 12.55 0 01-2.2-2.54 1.59 1.59 0 013-1.14zm-13.58.49a12.84 12.84 0 01-1.16 3.13.48.48 0 01-.87 0 12.65 12.65 0 01-1.15-3.16 1.59 1.59 0 113.18 0zm-12.85-4.42a12.75 12.75 0 01-2.22 2.55.48.48 0 01-.81-.32 12.82 12.82 0 01.06-3.36 1.59 1.59 0 013 1.15zm-10.41-8.73a12.91 12.91 0 01-3 1.57.48.48 0 01-.64-.59 12.53 12.53 0 011.28-3.11 1.59 1.59 0 112.36 2.13zm-6.6-11.88a12.8 12.8 0 01-3.34.4.48.48 0 01-.39-.78 12.79 12.79 0 012.29-2.46 1.59 1.59 0 111.44 2.84zm-1.89-13.45a13.25 13.25 0 01-3.26-.83.48.48 0 01-.09-.87 12.9 12.9 0 013-1.47 1.59 1.59 0 11.33 3.17zm3.05-13.25a12.5 12.5 0 01-2.75-1.94.48.48 0 01.23-.84 12.75 12.75 0 013.35-.29 1.59 1.59 0 11-.83 3.07zm7.59-11.26a12.57 12.57 0 01-1.87-2.8.48.48 0 01.51-.7 12.58 12.58 0 013.24.92 1.6 1.6 0 01-1.88 2.58zm11.13-7.8a12.78 12.78 0 01-.75-3.28.48.48 0 01.73-.48 12.56 12.56 0 012.69 2 1.59 1.59 0 11-2.67 1.73zm13.18-3.3a12.83 12.83 0 01.48-3.33.48.48 0 01.85-.18 12.78 12.78 0 011.78 2.86 1.59 1.59 0 01-3.11.65z"/><path class="cls-2" d="M90.55 154.91a12.83 12.83 0 012.84 1.79.48.48 0 01-.18.86 12.66 12.66 0 01-3.33.46 1.59 1.59 0 01.67-3.11zm-7 11.65a12.6 12.6 0 012 2.7.49.49 0 01-.48.73 13.16 13.16 0 01-3.28-.76 1.59 1.59 0 011.74-2.67zm-10.7 8.37a12.63 12.63 0 01.91 3.24.48.48 0 01-.7.51 12.45 12.45 0 01-2.79-1.88 1.59 1.59 0 012.58-1.87zm-12.99 3.98a12.48 12.48 0 01-.31 3.35.48.48 0 01-.84.22 12.4 12.4 0 01-1.93-2.75 1.59 1.59 0 013.08-.82zM46.3 178a13 13 0 01-1.48 3 .48.48 0 01-.87-.1 12.64 12.64 0 01-.81-3.26 1.59 1.59 0 113.16.34zM34 172.23a12.89 12.89 0 01-2.47 2.29.49.49 0 01-.78-.4 12.86 12.86 0 01.41-3.34 1.59 1.59 0 012.84 1.45zm-9.46-9.76a12.71 12.71 0 01-3.12 1.24.48.48 0 01-.58-.65 12.68 12.68 0 011.58-3 1.59 1.59 0 012.12 2.37zM19.23 150a12.53 12.53 0 01-3.37 0 .49.49 0 01-.31-.82 12.55 12.55 0 012.54-2.2 1.59 1.59 0 111.14 3zm-.48-13.62a12.74 12.74 0 01-3.16-1.16.48.48 0 010-.87 12.79 12.79 0 013.16-1.15 1.59 1.59 0 010 3.18zm4.41-12.85a13 13 0 01-2.53-2.21.49.49 0 01.32-.82 12.82 12.82 0 013.36.06 1.59 1.59 0 11-1.15 3zm8.73-10.41a12.91 12.91 0 01-1.57-3 .48.48 0 01.59-.64 12.63 12.63 0 013.09 1.28 1.59 1.59 0 11-2.14 2.36zm11.88-6.59a12.56 12.56 0 01-.39-3.34.48.48 0 01.77-.4 12.49 12.49 0 012.46 2.3 1.59 1.59 0 01-.7 2.14 1.6 1.6 0 01-2.14-.7zm13.46-1.9a12.73 12.73 0 01.82-3.26.48.48 0 01.87-.09 12.9 12.9 0 011.47 3 1.59 1.59 0 11-3.16.33zm13.24 3.05a12.5 12.5 0 011.94-2.75.48.48 0 01.84.23 12.75 12.75 0 01.29 3.35 1.59 1.59 0 11-3.07-.83zm11.27 7.59a12.46 12.46 0 012.79-1.87.48.48 0 01.71.51 12.94 12.94 0 01-.93 3.24 1.59 1.59 0 01-2.57-1.88zm7.8 11.13a12.58 12.58 0 013.28-.75.48.48 0 01.47.73 12.56 12.56 0 01-2 2.69 1.59 1.59 0 11-1.72-2.67zm3.29 13.18a12.83 12.83 0 013.33.48.48.48 0 01.18.85 12.78 12.78 0 01-2.86 1.78 1.59 1.59 0 11-.65-3.11z"/><path class="cls-4" d="M114.11 134v37.6a31.18 31.18 0 00-31.19 31.19H45.3a31.18 31.18 0 00-31.19-31.19V134a31.18 31.18 0 0031.19-31.21h37.62A31.18 31.18 0 00114.11 134z"/><g clip-path="url(#clip-path)"><path class="cls-6" d="M18.84 106.97l90.96 90.97m0-90.97l-90.96 90.97M4.9 127.84l118.84 49.23M88.93 93.03L39.7 211.88M0 152.45h128.64M64.32 88.14v128.63M4.9 177.07l118.84-49.23M39.7 93.03l49.23 118.85"/></g><circle class="cls-2" cx="64.32" cy="154.46" r="29.79"/><path class="cls-7" d="M64.32 127.17a27.29 27.29 0 1027.29 27.29 27.29 27.29 0 00-27.29-27.29m0-5A32.29 32.29 0 1132 154.46a32.33 32.33 0 0132.29-32.29z"/><path class="cls-8" d="M69 136.32a9.81 9.81 0 01-4.92 8.51 9.83 9.83 0 010-17 9.81 9.81 0 014.92 8.49z"/><path class="cls-8" d="M73.6 142.3a9.78 9.78 0 01-9.49 2.53 9.83 9.83 0 0112-12 9.81 9.81 0 01-2.51 9.47z"/><path class="cls-8" d="M61.57 135.34a9.81 9.81 0 012.54 9.49 9.83 9.83 0 01-12-12 9.81 9.81 0 019.46 2.51z"/><path class="cls-8" d="M81.05 149.29c0-4.56-7.72-8.25-17.25-8.25s-17.25 3.69-17.25 8.25c0 9 3.84 22 11.27 29.17 0 0 5.32 5.25 12 0 4.95-3.93 11.23-19.84 11.23-29.17z"/><path class="cls-7" d="M64.11 127.81a9.85 9.85 0 00-4.58 6 9.75 9.75 0 00-4.91-1.32 10 10 0 00-2.55.34 9.79 9.79 0 002.55 9.49c-4.85 1.46-8.09 4-8.09 7 0 9 3.83 22 11.27 29.17a9.09 9.09 0 005.91 2.33 9.69 9.69 0 006.06-2.33c5-3.93 11.26-19.84 11.26-29.17 0-2.85-3-5.36-7.62-6.85l.17-.14a9.81 9.81 0 002.54-9.5 9.88 9.88 0 00-7.45 1 9.85 9.85 0 00-4.58-6m0-3.46l1.5.86a12.94 12.94 0 014.69 4.69 13 13 0 016.62 0l1.68.45L79 132a12.86 12.86 0 01-1 9.13c3.83 2 6 4.9 6 8.14 0 10.16-6.61 27-12.4 31.53a12.71 12.71 0 01-7.92 3 12 12 0 01-8-3.17c-8-7.69-12.19-21.59-12.19-31.33 0-3.33 2.36-6.32 6.46-8.38a12.87 12.87 0 01-.84-8.88l.45-1.68 1.67-.45a12.75 12.75 0 016.64 0 12.86 12.86 0 014.67-4.68l1.5-.87z"/><path class="cls-7" d="M65.7 150a15.55 15.55 0 01-1.4 3.84.58.58 0 01-1.06 0 15.55 15.55 0 01-1.4-3.84 1.93 1.93 0 013.86 0zm-8.92 3a15.1 15.1 0 01.14 4.08.58.58 0 01-1 .4 15.58 15.58 0 01-2.74-3 1.93 1.93 0 013.6-1.48zm13.58 0a16 16 0 00-.14 4.08.58.58 0 001 .4 15 15 0 002.74-3 1.93 1.93 0 00-3.6-1.48zm-4.66 6a15.36 15.36 0 01-1.4 3.83.58.58 0 01-1.06 0 15.36 15.36 0 01-1.4-3.83 1.93 1.93 0 113.86 0zm-.21 9a15.5 15.5 0 01-1.4 3.83.58.58 0 01-1.06 0 15.5 15.5 0 01-1.4-3.83 1.93 1.93 0 113.86 0zm-7.6-6.58a15.08 15.08 0 01.11 4.08.58.58 0 01-1 .39 15.57 15.57 0 01-2.74-3 1.93 1.93 0 113.58-1.45zm11.33 0a15.5 15.5 0 00-.14 4.08.58.58 0 001 .39 15.25 15.25 0 002.74-3 1.93 1.93 0 10-3.58-1.45z"/><path class="cls-4" d="M114.29 102.69H214.5V202.9H114.29z"/><path class="cls-7" d="M164.39 200.19a47.4 47.4 0 1147.4-47.4 47.45 47.45 0 01-47.4 47.4z"/><path class="cls-7" d="M164.39 107.78a45 45 0 1045 45 45.06 45.06 0 00-45-45m0-4.78a49.79 49.79 0 11-49.78 49.79A49.79 49.79 0 01164.39 103z"/><path class="cls-2" d="M137.45 188.84c.44-1.06 3.14-4.26 5.17-6.58a1.2 1.2 0 012.1.87c-.21 3.07-.56 7.25-1 8.31a3.39 3.39 0 01-6.27-2.6zm65.09-57.34c-.81.81-4.53 2.73-7.3 4.1a1.2 1.2 0 01-1.6-1.61c1.37-2.76 3.29-6.48 4.1-7.29a3.39 3.39 0 014.8 4.8zm-82.08 28.07c1.06-.44 5.23-.8 8.31-1a1.19 1.19 0 01.87 2.09c-2.33 2-5.53 4.74-6.59 5.18a3.39 3.39 0 11-2.59-6.27zM207 165c-1.14 0-5.14-1.27-8.06-2.25a1.2 1.2 0 010-2.27c2.92-1 6.92-2.26 8.06-2.26a3.39 3.39 0 110 6.78zm-77.86-38.15c1.06.44 4.26 3.14 6.59 5.17a1.2 1.2 0 01-.87 2.1c-3.08-.21-7.25-.56-8.31-1a3.39 3.39 0 012.59-6.27zm57.35 65.09c-.81-.81-2.74-4.53-4.11-7.29A1.2 1.2 0 01184 183c2.76 1.37 6.49 3.29 7.3 4.11a3.39 3.39 0 11-4.8 4.79zm-28.07-82.08c.44 1.06.79 5.24 1 8.31a1.2 1.2 0 01-2.1.87c-2-2.32-4.73-5.52-5.17-6.58a3.39 3.39 0 016.27-2.6zm-5.48 86.58c0-1.15 1.27-5.14 2.26-8.06a1.2 1.2 0 012.27 0c1 2.92 2.26 6.91 2.26 8.06a3.4 3.4 0 01-6.79 0zm38.19-77.89c-.44 1.06-3.14 4.26-5.17 6.58a1.2 1.2 0 01-2.1-.87c.21-3.07.56-7.25 1-8.31a3.39 3.39 0 016.27 2.6zM126 175.89c.81-.81 4.53-2.73 7.3-4.1a1.19 1.19 0 011.6 1.6c-1.37 2.77-3.29 6.49-4.1 7.3a3.39 3.39 0 11-4.8-4.8zm82.12-28.07c-1.06.44-5.23.8-8.31 1a1.2 1.2 0 01-.87-2.1c2.33-2 5.53-4.73 6.59-5.17a3.39 3.39 0 012.59 6.27zm-86.57-5.47c1.14 0 5.14 1.27 8.06 2.25a1.2 1.2 0 010 2.27c-2.92 1-6.92 2.26-8.06 2.26a3.39 3.39 0 110-6.78zm77.89 38.19c-1.06-.44-4.26-3.14-6.59-5.17a1.2 1.2 0 01.87-2.1c3.08.21 7.25.56 8.31 1a3.39 3.39 0 11-2.59 6.27zm-57.35-65.09c.81.81 2.74 4.53 4.11 7.29a1.2 1.2 0 01-1.61 1.61c-2.76-1.37-6.49-3.3-7.3-4.11a3.39 3.39 0 014.8-4.79zm28.07 82.08c-.44-1.06-.79-5.24-1-8.32a1.2 1.2 0 012.1-.86c2 2.32 4.73 5.52 5.17 6.58a3.39 3.39 0 01-6.27 2.6zm5.48-86.53c0 1.15-1.27 5.14-2.26 8.06a1.2 1.2 0 01-2.27 0c-1-2.92-2.26-6.91-2.26-8.06a3.4 3.4 0 016.79 0zM147 176.35a31 31 0 014.13-3.58.78.78 0 011.24.82 31.74 31.74 0 01-1.68 5.2 2.21 2.21 0 11-3.69-2.44zm41.92-36.74a30.8 30.8 0 01-5.19 1.72.78.78 0 01-.83-1.23 32 32 0 013.55-4.16 2.21 2.21 0 012.47 3.67zm-52.79 17.89a32.63 32.63 0 015.45.4.79.79 0 01.3 1.46 31.19 31.19 0 01-4.87 2.49 2.22 2.22 0 01-.88-4.35zm55.62 3.68a32.21 32.21 0 01-4.88-2.46.78.78 0 01.28-1.45 30.55 30.55 0 015.45-.44 2.22 2.22 0 11-.85 4.35zm-49.98-24.68a31.3 31.3 0 013.58 4.14.78.78 0 01-.82 1.23 31.29 31.29 0 01-5.21-1.68 2.21 2.21 0 112.45-3.69zm36.73 41.93a33.13 33.13 0 01-1.72-5.19.78.78 0 011.23-.83 31 31 0 014.17 3.54 2.22 2.22 0 01-3.68 2.48zm-17.89-52.8a30.62 30.62 0 01-.4 5.46.78.78 0 01-1.45.29 31.19 31.19 0 01-2.49-4.87 2.21 2.21 0 114.34-.88zm-3.67 55.62a31.93 31.93 0 012.45-4.88.79.79 0 011.46.28 31.55 31.55 0 01.44 5.45 2.22 2.22 0 11-4.35-.85zm24.68-49.98a31.9 31.9 0 01-4.14 3.58.79.79 0 01-1.24-.82 32.27 32.27 0 011.68-5.21 2.22 2.22 0 013.7 2.45zM139.69 168a31.12 31.12 0 015.19-1.72.78.78 0 01.83 1.23 31.37 31.37 0 01-3.54 4.16 2.21 2.21 0 11-2.48-3.67zm52.79-17.89a31.32 31.32 0 01-5.45-.39.79.79 0 01-.3-1.46 32.1 32.1 0 014.87-2.49 2.21 2.21 0 01.88 4.34zm-55.62-3.67a31.48 31.48 0 014.89 2.45.79.79 0 01-.29 1.46 31.41 31.41 0 01-5.45.44 2.22 2.22 0 11.85-4.35zm49.98 24.68a31.32 31.32 0 01-3.57-4.14.78.78 0 01.82-1.23 29.89 29.89 0 015.2 1.68 2.21 2.21 0 11-2.45 3.69zm-36.73-41.93a31.12 31.12 0 011.72 5.19.78.78 0 01-1.23.83 31.61 31.61 0 01-4.17-3.54 2.22 2.22 0 113.68-2.48zM168 182a31.61 31.61 0 01.4-5.46.78.78 0 011.45-.29 31.91 31.91 0 012.5 4.86 2.22 2.22 0 01-4.35.89zm3.68-55.64a31.75 31.75 0 01-2.46 4.89.78.78 0 01-1.45-.28 30.55 30.55 0 01-.44-5.45 2.22 2.22 0 114.35.84z"/><path class="cls-8" d="M173.26 155a7.21 7.21 0 01-5.1-2.1 7.31 7.31 0 01-1.89-3.27 7.23 7.23 0 005.11-8.83 6.83 6.83 0 011.88-.26 7.23 7.23 0 110 14.46z"/><path class="cls-8" d="M173.26 155a7.21 7.21 0 01-5.1-2.1 7.31 7.31 0 01-1.89-3.27 7.23 7.23 0 005.11-8.83 6.83 6.83 0 011.88-.26 7.23 7.23 0 110 14.46zm-10.75-5.33a7.38 7.38 0 01-1.73-.72 7.22 7.22 0 01-3.37-8.11 7.21 7.21 0 015.1 8.83z"/><path class="cls-8" d="M162.51 149.67a7.21 7.21 0 00-5.1-8.83 7.22 7.22 0 115.1 8.83z"/><path class="cls-8" d="M162.51 149.67a7.38 7.38 0 01-1.73-.72 7.22 7.22 0 01-3.37-8.11 7.21 7.21 0 015.1 8.83z"/><path class="cls-8" d="M150.42 152.93a7.11 7.11 0 01-1.15-1.5 7.23 7.23 0 012.65-9.88 7.15 7.15 0 015.49-.71 7.22 7.22 0 013.22 12.09 7.08 7.08 0 01-1.49 1.14 7.24 7.24 0 01-8.72-1.14z"/><path class="cls-8" d="M150.42 152.93a7.11 7.11 0 01-1.15-1.5 7.23 7.23 0 012.65-9.88 7.15 7.15 0 015.49-.71 7.22 7.22 0 013.22 12.09 7.08 7.08 0 01-1.49 1.14 7.24 7.24 0 01-8.72-1.14z"/><path class="cls-8" d="M155.53 150.82a7.23 7.23 0 11-7.23 7.23 7.23 7.23 0 017.23-7.23z"/><path class="cls-8" d="M155.53 150.82a7.23 7.23 0 11-7.23 7.23 7.23 7.23 0 017.23-7.23z"/><path class="cls-8" d="M158.14 159.56a7.22 7.22 0 112.64 9.87 7.23 7.23 0 01-2.64-9.87z"/><path class="cls-8" d="M158.14 159.56a7.22 7.22 0 112.64 9.87 7.23 7.23 0 01-2.64-9.87z"/><path class="cls-8" d="M167 161.66a7.23 7.23 0 119.87 2.65 7.23 7.23 0 01-9.87-2.65z"/><path class="cls-8" d="M167 161.66a7.23 7.23 0 119.87 2.65 7.23 7.23 0 01-9.87-2.65z"/><path class="cls-8" d="M173.26 155a7.21 7.21 0 01-5.1-2.1 7.31 7.31 0 01-1.89-3.27 7.23 7.23 0 005.11-8.83 6.83 6.83 0 011.88-.26 7.23 7.23 0 110 14.46z"/><path class="cls-8" d="M173.26 155a7.21 7.21 0 01-5.1-2.1 7.31 7.31 0 01-1.89-3.27 7.23 7.23 0 005.11-8.83 6.83 6.83 0 011.88-.26 7.23 7.23 0 110 14.46z"/><path class="cls-7" d="M164.4 135.46a7.26 7.26 0 00-7 5.38 7.22 7.22 0 00-8.14 10.59 7.11 7.11 0 001.15 1.5 7.23 7.23 0 005.11 12.35 7.29 7.29 0 001.88-.26 7.22 7.22 0 0013.24 1.76 7 7 0 00.72-1.75 7.62 7.62 0 001.9.25 7.14 7.14 0 003.6-1 7.2 7.2 0 001.49-11.37 7.23 7.23 0 00-5.1-12.36 6.83 6.83 0 00-1.88.26 7.26 7.26 0 00-7-5.38m0-5a12.25 12.25 0 0110 5.18 12.24 12.24 0 0110 17.3 12.24 12.24 0 01-10 17.29 12.25 12.25 0 01-20 0 12.24 12.24 0 01-10-17.3 12.24 12.24 0 015-15.7 12.24 12.24 0 015-1.6 12.29 12.29 0 0110-5.17z"/><path class="cls-8" d="M164.39 160.16a7.23 7.23 0 117.23-7.23 7.23 7.23 0 01-7.23 7.23z"/><path class="cls-4" d="M214.36 2.9h100.21v100.21H214.36z"/><path class="cls-7" d="M264.46 100.4a47.4 47.4 0 1147.4-47.4 47.45 47.45 0 01-47.4 47.4z"/><path class="cls-7" d="M264.46 8a45 45 0 1045 45 45.05 45.05 0 00-45-45m0-4.78A49.79 49.79 0 11214.68 53a49.79 49.79 0 0149.78-49.78z"/><path class="cls-2" d="M237.52 89.05c.44-1.06 3.14-4.26 5.17-6.58a1.2 1.2 0 012.1.87c-.21 3.08-.57 7.25-1 8.31a3.39 3.39 0 11-6.27-2.6zm65.09-57.34c-.81.81-4.53 2.73-7.3 4.1a1.2 1.2 0 01-1.61-1.6c1.38-2.77 3.3-6.49 4.11-7.3a3.39 3.39 0 114.8 4.8zm-82.08 28.07c1.06-.44 5.23-.79 8.31-1a1.2 1.2 0 01.87 2.1c-2.33 2-5.53 4.73-6.59 5.17a3.39 3.39 0 01-2.59-6.27zm86.57 5.48C306 65.26 302 64 299 63a1.2 1.2 0 010-2.27c2.92-1 6.92-2.26 8.06-2.26a3.4 3.4 0 010 6.79zm-77.89-38.19c1.06.43 4.26 3.14 6.59 5.17a1.19 1.19 0 01-.87 2.09c-3.08-.2-7.25-.56-8.31-1a3.39 3.39 0 112.59-6.26zm57.35 65.09c-.81-.81-2.74-4.54-4.11-7.3a1.2 1.2 0 011.61-1.61c2.76 1.37 6.48 3.3 7.3 4.11a3.39 3.39 0 11-4.8 4.8zm-28.07-82.09c.44 1.06.79 5.24 1 8.32a1.2 1.2 0 01-2.1.87c-2-2.33-4.73-5.53-5.17-6.59a3.39 3.39 0 016.27-2.6zM253 96.65c0-1.15 1.27-5.14 2.26-8.06a1.2 1.2 0 012.27 0c1 2.92 2.26 6.91 2.26 8.06a3.4 3.4 0 01-6.79 0zm38.2-77.89c-.44 1.06-3.14 4.26-5.17 6.59a1.2 1.2 0 01-2.1-.87c.21-3.08.56-7.26 1-8.32a3.39 3.39 0 016.27 2.6zm-65.09 57.35c.81-.81 4.53-2.74 7.3-4.11a1.2 1.2 0 011.6 1.61c-1.37 2.76-3.29 6.48-4.1 7.29a3.39 3.39 0 11-4.8-4.79zM308.19 48c-1.06.43-5.23.79-8.31 1a1.2 1.2 0 01-.87-2.1c2.32-2 5.53-4.73 6.58-5.17a3.39 3.39 0 112.6 6.27zm-86.57-5.44c1.14 0 5.13 1.27 8.06 2.26a1.2 1.2 0 010 2.27c-2.93 1-6.92 2.25-8.06 2.25a3.39 3.39 0 110-6.78zm77.89 38.19c-1.06-.44-4.27-3.14-6.59-5.17a1.2 1.2 0 01.87-2.1c3.08.21 7.25.56 8.31 1a3.39 3.39 0 11-2.59 6.27zm-57.35-65.09c.81.81 2.73 4.53 4.11 7.3a1.2 1.2 0 01-1.61 1.6c-2.77-1.37-6.49-3.29-7.3-4.1a3.39 3.39 0 114.8-4.8zm28.07 82.08c-.44-1.06-.79-5.23-1-8.31a1.2 1.2 0 012.1-.87c2 2.32 4.73 5.52 5.17 6.58a3.39 3.39 0 11-6.27 2.6zm5.48-86.58c0 1.15-1.27 5.14-2.26 8.07a1.2 1.2 0 01-2.27 0c-1-2.93-2.26-6.92-2.26-8.07a3.4 3.4 0 016.79 0zm-28.64 65.4A31 31 0 01251.2 73a.79.79 0 011.24.82 32.27 32.27 0 01-1.68 5.18 2.21 2.21 0 11-3.69-2.45zM289 39.83a32.76 32.76 0 01-5.19 1.72.79.79 0 01-.83-1.24 32 32 0 013.55-4.16 2.22 2.22 0 012.47 3.68zm-52.8 17.89a31.32 31.32 0 015.45.39.79.79 0 01.3 1.46 32.1 32.1 0 01-4.87 2.49 2.21 2.21 0 01-.88-4.34zm55.62 3.67a31.93 31.93 0 01-4.88-2.45.78.78 0 01.28-1.46 31.48 31.48 0 015.45-.44 2.22 2.22 0 01-.85 4.35zm-49.98-24.68a31.32 31.32 0 013.57 4.14.78.78 0 01-.81 1.24 32.27 32.27 0 01-5.21-1.68 2.22 2.22 0 012.45-3.7zm36.73 41.93a32.09 32.09 0 01-1.72-5.19.78.78 0 011.23-.83 31.61 31.61 0 014.17 3.54 2.22 2.22 0 01-3.68 2.48zm-17.89-52.79a31.57 31.57 0 01-.4 5.45.78.78 0 01-1.45.29 31.64 31.64 0 01-2.49-4.86 2.21 2.21 0 114.34-.88zM257 81.47a30.59 30.59 0 012.45-4.89.79.79 0 011.46.29 32.46 32.46 0 01.44 5.45 2.22 2.22 0 11-4.35-.85zm24.69-49.98a32.82 32.82 0 01-4.14 3.57.78.78 0 01-1.24-.82A31.74 31.74 0 01278 29a2.22 2.22 0 113.7 2.45zm-41.93 36.73A31.12 31.12 0 01245 66.5a.78.78 0 01.83 1.23 30.61 30.61 0 01-3.55 4.16 2.21 2.21 0 11-2.47-3.67zm52.79-17.89a31.57 31.57 0 01-5.45-.4.78.78 0 01-.3-1.45 31.44 31.44 0 014.87-2.5 2.22 2.22 0 01.88 4.35zm-55.62-3.68a31.75 31.75 0 014.89 2.46.78.78 0 01-.29 1.45 30.49 30.49 0 01-5.45.44 2.22 2.22 0 11.85-4.35zm49.98 24.68a31.08 31.08 0 01-3.57-4.13.78.78 0 01.82-1.24 31.11 31.11 0 015.2 1.68 2.21 2.21 0 01-2.45 3.69zM250.18 29.4a31.31 31.31 0 011.72 5.2.78.78 0 01-1.23.82 31.61 31.61 0 01-4.17-3.54 2.22 2.22 0 113.68-2.48zm17.89 52.8a31.61 31.61 0 01.4-5.46.78.78 0 011.45-.29 30.32 30.32 0 012.49 4.87 2.21 2.21 0 11-4.34.88zm3.67-55.62a31 31 0 01-2.45 4.88.79.79 0 01-1.46-.28 32.6 32.6 0 01-.44-5.45 2.22 2.22 0 014.35.85zm-7.68 45.54a18.51 18.51 0 1113.09-5.42 18.43 18.43 0 01-13.09 5.42z"/><path class="cls-7" d="M264.06 36.66a17 17 0 1012 5 16.9 16.9 0 00-12-5m0-3.11a20.07 20.07 0 11-14.19 5.88 19.93 19.93 0 0114.19-5.88z"/><path class="cls-8" d="M274.09 47.71a6.09 6.09 0 01-5.9 1.58 6.11 6.11 0 017.48-7.48 6.09 6.09 0 01-1.58 5.9z"/><path class="cls-8" d="M273.48 52.35a6.09 6.09 0 01-5.29-3.06 6.11 6.11 0 0110.58 0 6.09 6.09 0 01-5.29 3.06z"/><path class="cls-8" d="M271.25 44a6.09 6.09 0 01-3.06 5.29 6.1 6.1 0 010-10.57 6.08 6.08 0 013.06 5.28z"/><path class="cls-8" d="M273.68 58.69c2-2 .23-7-3.95-11.2s-9.2-6-11.21-4c-3.95 4-8 11.35-7.86 17.76a5.51 5.51 0 005.26 5.26c3.91.49 13.66-3.72 17.76-7.82z"/><path class="cls-7" d="M266.65 52.24a9.61 9.61 0 01-2.3 1.07.37.37 0 01-.47-.47 9.61 9.61 0 011.07-2.3 1.2 1.2 0 011.7 0 1.22 1.22 0 010 1.7zm-5.27-2.57a9.6 9.6 0 01-1.73 1.85.36.36 0 01-.6-.26 9.58 9.58 0 01.12-2.53 1.2 1.2 0 112.21.94zm5.97 5.96a9.64 9.64 0 00-1.85 1.73.36.36 0 00.25.61 9.51 9.51 0 002.53-.13 1.2 1.2 0 00-.93-2.21zm-4.66.57a9.64 9.64 0 01-2.3 1.06.36.36 0 01-.47-.46 9.61 9.61 0 011.08-2.3 1.2 1.2 0 111.7 1.7zm-4.05 3.86a9.61 9.61 0 01-2.3 1.07.37.37 0 01-.47-.47 9.61 9.61 0 011.07-2.3 1.2 1.2 0 011.7 1.7zm-.46-6.21a9.94 9.94 0 01-1.73 1.85.37.37 0 01-.61-.26 9.51 9.51 0 01.13-2.53 1.2 1.2 0 112.21.94zm4.97 4.97a9.94 9.94 0 00-1.85 1.73.37.37 0 00.26.61 9.51 9.51 0 002.53-.13 1.2 1.2 0 10-.94-2.21z"/><path class="cls-3" d="M14.25 2.64h100.21v100.21H14.25z"/><circle class="cls-9" cx="64.36" cy="24.63" r="19.89"/><circle class="cls-9" cx="92.48" cy="52.75" r="19.89"/><circle class="cls-9" cx="64.36" cy="80.87" r="19.89"/><circle class="cls-9" cx="36.24" cy="52.75" r="19.89"/><path class="cls-9" d="M16.35 4.91h96.02m-96.02 6.38h96.02m-96.02 6.39h96.02m-96.02 6.38h96.02m-96.02 6.38h96.02m-96.02 6.38h96.02M16.35 43.2h96.02m-96.02 6.39h96.02m-96.02 6.38h96.02m-96.02 6.38h96.02m-96.02 6.38h96.02m-96.02 6.38h96.02m-96.02 6.38h96.02m-96.02 6.39h96.02m-96.02 6.38h96.02m-96.02 6.38h96.02"/><circle class="cls-9" cx="64.36" cy="52.75" r="34.89"/><path d="M107.69 11.75C111.22 18.21 94.1 43.06 87 46.09s-9.93.57-12.27-3.67-1.47-9.93 4.15-11.73 25.28-25.4 28.81-18.94zM21 93.58C16.9 87 34.63 60.31 42.48 58s10.07.47 11.76 5 1 9.73-5.76 11.12S25.15 100.15 21 93.58zm84.26 2.59C98.45 99.63 72.83 82.75 70 75.05s.12-10 4.5-12 9.77-1 11.33 5.19 26.23 24.48 19.43 27.93zM23.25 9.46C29.73 6 54.93 22.81 58.18 29.72s.76 9.78-3.45 12.21-9.84 1.23-11.85-3.93-26.1-25.1-19.63-28.54z" stroke-linecap="round" stroke-width="5" stroke="#bce4fa" stroke-miterlimit="10" fill="#fff"/><path d="M71.28 50.86c.29-3 2.79-5.78 5.4-7.75l3.38-2.57M66.24 59.67c3 .29 5.78 2.79 7.76 5.4l2.56 3.38M57.43 54.63c-.28 3-2.78 5.78-5.39 7.76L48.66 65m13.81-19.18c-3-.29-5.78-2.78-7.75-5.39L52.16 37" stroke-linecap="round" stroke-width="5" stroke="#bce4fa" stroke-miterlimit="10" fill="none"/><path class="cls-2" d="M214.33 39.63v-2.36m0-19.33v-2.43m0 74.44v-2.62m0-19.46v-2.36m-35.12 37.13h-2.01m24.13 0h-2.53m-69.38 0h-2.53m24.44 0h-2.69M114.2 67.76V65.5m0 24.13V87.1m0-69.39v-2.52m0 24.44v-2.45m100.13-19.24v19.33a15.3 15.3 0 000 30.6v19.46h-.23a15.3 15.3 0 00-15.3 15.3h-19.59a15.27 15.27 0 00-14.94-15h-.34a15.29 15.29 0 00-15.29 15.06h-19.22v-.25A15.29 15.29 0 00114.2 87.1V67.76a15.3 15.3 0 000-30.58V17.71h.15a15.3 15.3 0 0015.3-15.21h19.09a15.29 15.29 0 0030.57 0H199v.15a15.29 15.29 0 0015.33 15.29zm-63-15.44h-2.59m-19.09 0h-2.44m74.43 0h-2.6m-19.73 0h-2.1m-37.95 100.38v-.24m0-100.14v-.34m-25.06 25.4h-.33m100.71 0h-.25M189.19 2.5v-.34m0 100.72v-.24m25.39-25.16h-.25m-100.13 0h-.33m.33 9.62h-.08m15.53-84.6v-.09m49.57 100.47a1.93 1.93 0 000-.24m-30.58 0a1.93 1.93 0 000 .24M114.2 67.76h-.58m.58-30.58h-.58M148.74 2.5v-.34m30.58 0v.34"/><path class="cls-12" d="M214.5 15.51v24.12m0 25.88v24.43m-13.01 12.69h-24.12m-25.88 0h-24.43m-12.69-13V65.5m0-25.87V15.19m13-12.69h24.13m25.87 0h24.44"/><path class="cls-6" d="M139.43 2.16v100.71m75.32-75.32H114.04m75.32 75.32V2.16m-75.32 75.32h100.71"/><circle class="cls-2" cx="139.43" cy="27.62" r="15"/><path class="cls-7" d="M139.43 13.87a13.76 13.76 0 1013.75 13.75 13.75 13.75 0 00-13.75-13.75m0-2.5a16.26 16.26 0 11-16.25 16.25 16.27 16.27 0 0116.25-16.25z"/><path class="cls-8" d="M171.71 54.54a7.28 7.28 0 11-14.56 0c0-4 3.26-9.82 7.28-9.82s7.28 5.8 7.28 9.82z"/><path class="cls-6" d="M167.86 42.61a3.58 3.58 0 00-3.9 3.9v1.92"/><circle class="cls-12" cx="164.43" cy="52.57" r="15.3"/><path class="cls-12" d="M214.5 67.86a15.3 15.3 0 110-30.59m0-19.33a15.3 15.3 0 01-15.3-15.3m-.2 99.98a15.29 15.29 0 0115.3-15.29m-100.01-.24a15.3 15.3 0 0115.3 15.3m.23-99.98a15.3 15.3 0 01-15.3 15.3m34.28 85.16a15.3 15.3 0 0130.59 0m-65.6-65.7a15.3 15.3 0 110 30.59m65.7-65.6a15.3 15.3 0 11-30.59 0"/><path class="cls-8" d="M150.1 25.91a10.59 10.59 0 11-21.17 0c0-2.92 4.74-5.29 10.59-5.29S150.1 23 150.1 25.91z"/><path class="cls-8" d="M150.1 25.91c0 2.93-4.74 5.29-10.58 5.29s-10.59-2.36-10.59-5.29 4.74-5.29 10.59-5.29S150.1 23 150.1 25.91z"/><ellipse class="cls-13" cx="139.44" cy="25.91" rx="5.41" ry="1.8"/><circle class="cls-2" cx="189.54" cy="27.8" r="15"/><path class="cls-7" d="M189.54 14.05a13.76 13.76 0 1013.75 13.75 13.76 13.76 0 00-13.75-13.75m0-2.5a16.26 16.26 0 11-16.26 16.25 16.27 16.27 0 0116.26-16.25z"/><path class="cls-8" d="M191.25 38.47a10.58 10.58 0 110-21.16c2.92 0 5.29 4.74 5.29 10.58s-2.37 10.58-5.29 10.58z"/><path class="cls-8" d="M191.25 38.47c-2.92 0-5.29-4.73-5.29-10.58s2.37-10.58 5.29-10.58 5.29 4.74 5.29 10.58-2.37 10.58-5.29 10.58z"/><ellipse class="cls-13" cx="191.25" cy="27.81" rx="1.8" ry="5.41"/><circle class="cls-2" cx="189.36" cy="77.91" r="15"/><path class="cls-7" d="M189.36 64.15a13.76 13.76 0 1013.75 13.76 13.76 13.76 0 00-13.75-13.76m0-2.5a16.26 16.26 0 11-16.26 16.26 16.28 16.28 0 0116.26-16.26z"/><path class="cls-8" d="M178.69 79.62a10.58 10.58 0 1121.16 0c0 2.92-4.74 5.3-10.58 5.3s-10.58-2.38-10.58-5.3z"/><path class="cls-8" d="M178.69 79.62c0-2.92 4.74-5.29 10.58-5.29s10.58 2.37 10.58 5.29-4.74 5.3-10.58 5.3-10.58-2.38-10.58-5.3z"/><ellipse class="cls-13" cx="189.35" cy="79.62" rx="5.41" ry="1.8"/><circle class="cls-2" cx="139.25" cy="77.73" r="15"/><path class="cls-7" d="M139.25 64A13.75 13.75 0 10153 77.73 13.75 13.75 0 00139.25 64m0-2.5A16.25 16.25 0 11123 77.73a16.27 16.27 0 0116.25-16.25z"/><path class="cls-8" d="M137.54 67.06a10.59 10.59 0 010 21.17c-2.92 0-5.3-4.74-5.3-10.59s2.38-10.58 5.3-10.58z"/><path class="cls-8" d="M137.54 67.06c2.92 0 5.29 4.74 5.29 10.58s-2.37 10.59-5.29 10.59-5.3-4.74-5.3-10.59 2.38-10.58 5.3-10.58z"/><path class="cls-13" d="M135.74 77.72c0-3 .8-5.41 1.8-5.41s1.8 2.42 1.8 5.41-.81 5.42-1.8 5.42-1.8-2.43-1.8-5.42z"/><path class="cls-12" d="M164.19 17.46v19.81m-35.1 15.2h20.05m15.29 15.39v19.72m15.3-35.01h19.24"/><path class="cls-3" d="M214.46 103.11h100v100h-100z"/><path class="cls-14" d="M243 114.6c4.71 4.71 14 31.1 14 31.1s-26.41-9.3-31.13-14A12.08 12.08 0 11243 114.6zm60 17.03c-4.72 4.72-31.11 14-31.11 14s9.3-26.41 14-31.13A12.08 12.08 0 01303 131.63zm-17.06 59.99c-4.72-4.72-14-31.11-14-31.11s26.41 9.3 31.13 14a12.08 12.08 0 11-17.09 17.09zM226 174.59c4.72-4.72 31.11-14.05 31.11-14.05s-9.3 26.42-14 31.14A12.08 12.08 0 01226 174.59z"/><circle class="cls-14" cx="264.46" cy="122.4" r="12.08"/><circle class="cls-14" cx="264.46" cy="183.82" r="12.08" transform="rotate(-80.82 264.454 183.819)"/><circle class="cls-14" cx="295.48" cy="153.11" r="12.08"/><circle class="cls-14" cx="234.39" cy="153.11" r="12.08"/><path class="cls-8" d="M286.35 153.11a6.43 6.43 0 11-6.43-6.43 6.43 6.43 0 016.43 6.43zM264.46 175a6.44 6.44 0 116.44-6.43 6.43 6.43 0 01-6.44 6.43zm-21.89-21.89a6.44 6.44 0 116.43 6.43 6.43 6.43 0 01-6.43-6.43zm21.89-21.89a6.43 6.43 0 11-6.43 6.43 6.43 6.43 0 016.43-6.43z"/><circle class="cls-14" cx="264.46" cy="153.11" r="12.08"/></g></g></svg>