<svg xmlns="http://www.w3.org/2000/svg" viewBox="0 0 269 219.25"><defs><clipPath id="clip-path"><path d="M230 128.12a82.13 82.13 0 01-138.25 60 82.17 82.17 0 01-18.23-95.1 40 40 0 01-26.62-11.7l-.1-.11-6.58-7.63a40.24 40.24 0 1156-55.65l6 5a40.44 40.44 0 0113.06 25.4h2.15A2 2 0 01121 49c0 .14.07.29.1.43l.66.82A82.17 82.17 0 01230 128.12z" fill="none"/></clipPath><style>.cls-11,.cls-6{fill:none}.cls-2{fill:#f94616}.cls-11,.cls-5,.cls-6{stroke:#f94616}.cls-5{fill:#fff}.cls-11,.cls-5,.cls-6{stroke-linecap:round;stroke-linejoin:round}.cls-5,.cls-6{stroke-width:4px}.cls-11{stroke-width:6px}</style></defs><g id="Capa_2" data-name="Capa 2"><g id="Capa_3" data-name="Capa 3"><path class="cls-2" d="M147.87 41a87.13 87.13 0 11-87.12 87.12A87.13 87.13 0 01147.87 41m0-4A91.13 91.13 0 10239 128.12 91.23 91.23 0 00147.87 37z"/><circle cx="147.87" cy="128.12" r="83.06" stroke-miterlimit="10" stroke-width="8" stroke-dasharray="5.02 5.02" stroke="#f94616" fill="none"/><path class="cls-2" d="M147.87 49.11a79 79 0 11-79 79 79 79 0 0179-79m0-4a83 83 0 1083 83 83.07 83.07 0 00-83-83z"/><g clip-path="url(#clip-path)"><path class="cls-5" d="M129.21 126.67L82.24 97.99v-7.51l31.28-40.15h5.8l40.75 50.47"/><path class="cls-6" d="M119.1 49.5A38.27 38.27 0 0182.24 98"/><path class="cls-5" d="M132.2 66.73a38.29 38.29 0 01-31.2 42.71m28.21 7.13h38.93v28.76h-38.93z"/><path class="cls-6" transform="rotate(-45 189.533 185.563)" d="M179.66 169.06h19.75v33h-19.75z"/><path class="cls-5" transform="rotate(-45 178.492 93.096)" d="M168.61 74.59h19.75v37.01h-19.75z"/><path class="cls-6" transform="rotate(45 107.571 186.157)" d="M97.69 169.65h19.75v33H97.69z"/><path class="cls-5" d="M41.59 72.11l6.72 7.79A38.25 38.25 0 10101 24.48l-6.24-5.16"/><circle class="cls-5" cx="62.75" cy="40.25" r="38.25"/><circle class="cls-5" cx="62.75" cy="39.91" r="28.72"/><circle class="cls-6" cx="148.67" cy="116.57" r="19.46"/><path class="cls-5" d="M168.14 164.67h-38.93l3.77-9.67-3.77-9.67h38.93l-3.78 9.67 3.78 9.67zM132.98 155h31.38m-35.15 9.67h38.93v28.83h-38.93z"/><circle class="cls-6" cx="177.86" cy="173.89" r="9.88"/><circle class="cls-6" cx="165.4" cy="80.01" r="9.88"/><circle class="cls-6" cx="119.24" cy="174.49" r="9.88"/><path class="cls-5" d="M164.46 80.96l-11.27 11.26M167.96 114l8.73-8.73"/></g><circle cx="13.5" cy="108" r="11.5" stroke="#faf49a" stroke-width="4" stroke-linecap="round" stroke-linejoin="round" fill="none"/><circle cx="251.75" cy="183.75" r="10.25" fill="#bce4fa"/><path d="M251.75 38.5V69M267 53.75h-30.5" stroke="#000" stroke-width="4" stroke-linecap="round" stroke-linejoin="round" fill="none"/><path d="M262.53 42.97l-21.56 21.56m21.56 0l-21.56-21.56" stroke-width="6" stroke="#000" stroke-linecap="round" stroke-linejoin="round" fill="none"/><path class="cls-11" d="M48 39.91v-.5"/><path d="M51 31a14.76 14.76 0 0111.25-5.83" stroke-dasharray="13.1 0" stroke-width="6" stroke-linecap="round" stroke-linejoin="round" stroke="#f94616" fill="none"/><path class="cls-11" d="M62.25 25.16h.5"/></g></g></svg>