<svg xmlns="http://www.w3.org/2000/svg" xmlns:xlink="http://www.w3.org/1999/xlink" viewBox="0 0 317.07 216.77"><defs><style>.cls-1,.cls-11,.cls-12,.cls-6{fill:none;}.cls-10,.cls-13,.cls-14,.cls-2,.cls-4,.cls-8,.cls-9{fill:#fff;}.cls-3,.cls-7{fill:#bce4fa;}.cls-10,.cls-11,.cls-12,.cls-13,.cls-14,.cls-3,.cls-4,.cls-6,.cls-8,.cls-9{stroke:#bce4fa;stroke-miterlimit:10;}.cls-10,.cls-11,.cls-12,.cls-3,.cls-4{stroke-width:5px;}.cls-5{clip-path:url(#clip-path);}.cls-13,.cls-6,.cls-8,.cls-9{stroke-width:2.5px;}.cls-10,.cls-11,.cls-13,.cls-9{stroke-linecap:round;}.cls-13{stroke-dasharray:1 5;}.cls-14{stroke-width:4.26px;}</style><clipPath id="clip-path"><path class="cls-1" d="M114.32,133.64v37.62a31.18,31.18,0,0,0-31.19,31.19H45.51a31.18,31.18,0,0,0-31.19-31.19V133.64a31.18,31.18,0,0,0,31.19-31.19H83.13A31.18,31.18,0,0,0,114.32,133.64Z"/></clipPath></defs><title>pattern</title><g id="Capa_2" data-name="Capa 2"><g id="Capa_3" data-name="Capa 3"><rect class="cls-2" x="44.47" y="0.16" width="210.96" height="106.99"/><rect class="cls-3" x="14.11" y="102.79" width="100.21" height="100.21"/><path class="cls-2" d="M62.05,179.19a12.37,12.37,0,0,1-1.8,2.85.48.48,0,0,1-.85-.18,12.74,12.74,0,0,1-.47-3.33,1.59,1.59,0,0,1,3.12.66Z"/><path class="cls-2" d="M50.4,172.2a12.6,12.6,0,0,1-2.7,2,.49.49,0,0,1-.73-.48,12.63,12.63,0,0,1,.76-3.28,1.59,1.59,0,0,1,2.67,1.74Z"/><path class="cls-2" d="M42,161.5a12.63,12.63,0,0,1-3.24.91.48.48,0,0,1-.51-.7,12.45,12.45,0,0,1,1.88-2.79A1.59,1.59,0,0,1,42,161.5Z"/><path class="cls-2" d="M38.05,148.51a12.48,12.48,0,0,1-3.35-.31.48.48,0,0,1-.23-.84,12.66,12.66,0,0,1,2.76-1.93,1.59,1.59,0,0,1,.82,3.08Z"/><path class="cls-2" d="M39,135a12.82,12.82,0,0,1-3-1.48.48.48,0,0,1,.09-.87,12.79,12.79,0,0,1,3.27-.81A1.59,1.59,0,1,1,39,135Z"/><path class="cls-2" d="M44.72,122.63a12.8,12.8,0,0,1-2.28-2.46.48.48,0,0,1,.4-.78,12.71,12.71,0,0,1,3.33.41,1.59,1.59,0,1,1-1.45,2.83Z"/><path class="cls-2" d="M54.49,113.19a12.71,12.71,0,0,1-1.24-3.12.48.48,0,0,1,.64-.58,12.21,12.21,0,0,1,3,1.58,1.59,1.59,0,0,1-2.37,2.12Z"/><path class="cls-2" d="M67,107.88a12.53,12.53,0,0,1,0-3.37.49.49,0,0,1,.82-.31,12.55,12.55,0,0,1,2.2,2.54,1.59,1.59,0,1,1-3,1.14Z"/><path class="cls-2" d="M80.58,107.39a12.84,12.84,0,0,1,1.16-3.15.48.48,0,0,1,.87,0,12.65,12.65,0,0,1,1.15,3.16,1.59,1.59,0,1,1-3.18,0Z"/><path class="cls-2" d="M93.43,111.81a12.64,12.64,0,0,1,2.21-2.53.49.49,0,0,1,.82.32A13.28,13.28,0,0,1,96.4,113a1.59,1.59,0,1,1-3-1.15Z"/><path class="cls-2" d="M103.84,120.54a13,13,0,0,1,3-1.57.48.48,0,0,1,.65.59,12.8,12.8,0,0,1-1.26,3.12,1.59,1.59,0,1,1-2.36-2.14Z"/><path class="cls-2" d="M110.43,132.42a12.92,12.92,0,0,1,3.34-.4.49.49,0,0,1,.4.78,12.49,12.49,0,0,1-2.3,2.46,1.59,1.59,0,1,1-1.44-2.84Z"/><path class="cls-2" d="M112.33,145.88a12.83,12.83,0,0,1,3.26.82.48.48,0,0,1,.09.87,12.9,12.9,0,0,1-3,1.47,1.59,1.59,0,1,1-.33-3.16Z"/><path class="cls-2" d="M109.28,159.12a12.74,12.74,0,0,1,2.75,1.94.48.48,0,0,1-.23.84,12.75,12.75,0,0,1-3.35.29,1.59,1.59,0,0,1,.83-3.07Z"/><path class="cls-2" d="M101.69,170.38a12.92,12.92,0,0,1,1.87,2.8.48.48,0,0,1-.52.7,12.61,12.61,0,0,1-3.23-.92,1.6,1.6,0,0,1,1.88-2.58Z"/><path class="cls-2" d="M90.56,178.18a12.78,12.78,0,0,1,.75,3.28.49.49,0,0,1-.74.48,12.72,12.72,0,0,1-2.68-2,1.59,1.59,0,0,1,2.67-1.73Z"/><path class="cls-2" d="M77.38,181.48a12.83,12.83,0,0,1-.48,3.33.48.48,0,0,1-.85.18,12.88,12.88,0,0,1-1.79-2.86,1.59,1.59,0,0,1,3.12-.65Z"/><path class="cls-2" d="M36.65,150.35a12.83,12.83,0,0,1-2.84-1.79.48.48,0,0,1,.18-.86,13,13,0,0,1,3.33-.46,1.59,1.59,0,0,1-.67,3.11Z"/><path class="cls-2" d="M43.64,138.7a13,13,0,0,1-2-2.7.48.48,0,0,1,.47-.73,12.94,12.94,0,0,1,3.28.76,1.59,1.59,0,0,1-1.74,2.67Z"/><path class="cls-2" d="M54.34,130.33a13,13,0,0,1-.91-3.24.48.48,0,0,1,.71-.51,12.35,12.35,0,0,1,2.78,1.88,1.59,1.59,0,0,1-2.58,1.87Z"/><path class="cls-2" d="M67.34,126.35a12.83,12.83,0,0,1,.3-3.35.48.48,0,0,1,.85-.22,12.3,12.3,0,0,1,1.92,2.75,1.59,1.59,0,1,1-3.07.82Z"/><path class="cls-2" d="M80.89,127.29a12.71,12.71,0,0,1,1.49-3,.48.48,0,0,1,.86.1,12.41,12.41,0,0,1,.82,3.26,1.59,1.59,0,0,1-3.17-.34Z"/><path class="cls-2" d="M93.21,133a12.59,12.59,0,0,1,2.47-2.29.48.48,0,0,1,.77.4,12.44,12.44,0,0,1-.41,3.34A1.59,1.59,0,1,1,93.21,133Z"/><path class="cls-2" d="M102.65,142.79a12.81,12.81,0,0,1,3.13-1.24.48.48,0,0,1,.58.65,13,13,0,0,1-1.58,3,1.6,1.6,0,0,1-2.13-2.38Z"/><path class="cls-2" d="M108,155.3a12.47,12.47,0,0,1,3.36-.05.48.48,0,0,1,.31.82,12.55,12.55,0,0,1-2.54,2.2,1.57,1.57,0,0,1-2-.92A1.59,1.59,0,0,1,108,155.3Z"/><path class="cls-2" d="M108.45,168.88a12.89,12.89,0,0,1,3.16,1.16.48.48,0,0,1,0,.87,12.65,12.65,0,0,1-3.16,1.15,1.59,1.59,0,1,1,0-3.18Z"/><path class="cls-2" d="M104,181.73a12.69,12.69,0,0,1,2.53,2.21.48.48,0,0,1-.31.82,12.79,12.79,0,0,1-3.36-.06,1.59,1.59,0,1,1,1.14-3Z"/><path class="cls-2" d="M95.3,192.14a12.53,12.53,0,0,1,1.57,3,.48.48,0,0,1-.58.64,12.63,12.63,0,0,1-3.12-1.26,1.59,1.59,0,0,1,2.13-2.36Z"/><path class="cls-2" d="M83.42,198.73a12.92,12.92,0,0,1,.4,3.34.49.49,0,0,1-.78.4,12.78,12.78,0,0,1-2.46-2.3,1.59,1.59,0,1,1,2.84-1.44Z"/><path class="cls-2" d="M70,200.63a12.4,12.4,0,0,1-.83,3.26.47.47,0,0,1-.86.09,12.61,12.61,0,0,1-1.48-3,1.59,1.59,0,0,1,3.17-.33Z"/><path class="cls-2" d="M56.73,197.58a12.5,12.5,0,0,1-1.94,2.75.48.48,0,0,1-.84-.23,12.83,12.83,0,0,1-.3-3.35,1.59,1.59,0,0,1,3.08.83Z"/><path class="cls-2" d="M45.46,190a12.57,12.57,0,0,1-2.8,1.87.48.48,0,0,1-.7-.51,12.94,12.94,0,0,1,.93-3.24A1.59,1.59,0,0,1,45.46,190Z"/><path class="cls-2" d="M37.66,178.86a12.58,12.58,0,0,1-3.28.75.48.48,0,0,1-.47-.73,12.58,12.58,0,0,1,2-2.69,1.59,1.59,0,1,1,1.73,2.67Z"/><path class="cls-2" d="M34.37,165.68A12.77,12.77,0,0,1,31,165.2a.48.48,0,0,1-.18-.85,12.75,12.75,0,0,1,2.85-1.78,1.59,1.59,0,1,1,.66,3.11Z"/><path class="cls-2" d="M67.15,126.07a12.63,12.63,0,0,1,1.79-2.85.49.49,0,0,1,.86.18,13.1,13.1,0,0,1,.46,3.33,1.59,1.59,0,1,1-3.11-.66Z"/><path class="cls-2" d="M78.8,133.06a13.11,13.11,0,0,1,2.69-2,.48.48,0,0,1,.73.48,12.68,12.68,0,0,1-.75,3.28,1.59,1.59,0,0,1-2.67-1.74Z"/><path class="cls-2" d="M87.17,143.76a12.63,12.63,0,0,1,3.24-.91.48.48,0,0,1,.51.7A12.45,12.45,0,0,1,89,146.34a1.59,1.59,0,1,1-1.87-2.58Z"/><path class="cls-2" d="M91.15,156.75a12.48,12.48,0,0,1,3.35.31.48.48,0,0,1,.22.84A12.4,12.4,0,0,1,92,159.83a1.59,1.59,0,0,1-.82-3.08Z"/><path class="cls-2" d="M90.21,170.31a13,13,0,0,1,3,1.48.48.48,0,0,1-.1.87,12.33,12.33,0,0,1-3.26.81,1.59,1.59,0,0,1,.34-3.16Z"/><path class="cls-2" d="M84.47,182.63a12.49,12.49,0,0,1,2.29,2.46.48.48,0,0,1-.4.78,12.86,12.86,0,0,1-3.34-.41,1.59,1.59,0,0,1-.69-2.14A1.57,1.57,0,0,1,84.47,182.63Z"/><path class="cls-2" d="M74.7,192.07A12.29,12.29,0,0,1,76,195.19a.48.48,0,0,1-.65.58,12.61,12.61,0,0,1-3-1.58,1.59,1.59,0,0,1,2.37-2.12Z"/><path class="cls-2" d="M62.2,197.38a12.53,12.53,0,0,1,0,3.37.49.49,0,0,1-.82.31,12.55,12.55,0,0,1-2.2-2.54,1.59,1.59,0,0,1,3-1.14Z"/><path class="cls-2" d="M48.62,197.87A12.84,12.84,0,0,1,47.46,201a.48.48,0,0,1-.87,0,12.65,12.65,0,0,1-1.15-3.16,1.59,1.59,0,1,1,3.18,0Z"/><path class="cls-2" d="M35.77,193.45A12.75,12.75,0,0,1,33.55,196a.48.48,0,0,1-.81-.32,12.82,12.82,0,0,1,.06-3.36,1.59,1.59,0,0,1,3,1.15Z"/><path class="cls-2" d="M25.36,184.72a12.91,12.91,0,0,1-3,1.57.48.48,0,0,1-.64-.59A12.53,12.53,0,0,1,23,182.59a1.59,1.59,0,1,1,2.36,2.13Z"/><path class="cls-2" d="M18.76,172.84a12.8,12.8,0,0,1-3.34.4.48.48,0,0,1-.39-.78A12.79,12.79,0,0,1,17.32,170a1.59,1.59,0,1,1,1.44,2.84Z"/><path class="cls-2" d="M16.87,159.39a13.25,13.25,0,0,1-3.26-.83.48.48,0,0,1-.09-.87,12.9,12.9,0,0,1,3-1.47,1.59,1.59,0,1,1,.33,3.17Z"/><path class="cls-2" d="M19.92,146.14a12.5,12.5,0,0,1-2.75-1.94.48.48,0,0,1,.23-.84,12.75,12.75,0,0,1,3.35-.29,1.59,1.59,0,1,1-.83,3.07Z"/><path class="cls-2" d="M27.51,134.88a12.57,12.57,0,0,1-1.87-2.8.48.48,0,0,1,.51-.7,12.58,12.58,0,0,1,3.24.92,1.6,1.6,0,0,1-1.88,2.58Z"/><path class="cls-2" d="M38.64,127.08a12.78,12.78,0,0,1-.75-3.28.48.48,0,0,1,.73-.48,12.56,12.56,0,0,1,2.69,2,1.59,1.59,0,1,1-2.67,1.73Z"/><path class="cls-2" d="M51.82,123.78a12.83,12.83,0,0,1,.48-3.33.48.48,0,0,1,.85-.18,12.78,12.78,0,0,1,1.78,2.86,1.59,1.59,0,0,1-3.11.65Z"/><path class="cls-2" d="M90.55,154.91a12.83,12.83,0,0,1,2.84,1.79.48.48,0,0,1-.18.86,12.66,12.66,0,0,1-3.33.46,1.59,1.59,0,0,1,.67-3.11Z"/><path class="cls-2" d="M83.55,166.56a12.6,12.6,0,0,1,2,2.7.49.49,0,0,1-.48.73,13.16,13.16,0,0,1-3.28-.76,1.59,1.59,0,0,1,1.74-2.67Z"/><path class="cls-2" d="M72.85,174.93a12.63,12.63,0,0,1,.91,3.24.48.48,0,0,1-.7.51,12.45,12.45,0,0,1-2.79-1.88,1.59,1.59,0,0,1,2.58-1.87Z"/><path class="cls-2" d="M59.86,178.91a12.48,12.48,0,0,1-.31,3.35.48.48,0,0,1-.84.22,12.4,12.4,0,0,1-1.93-2.75,1.59,1.59,0,0,1,3.08-.82Z"/><path class="cls-2" d="M46.3,178a13,13,0,0,1-1.48,3,.48.48,0,0,1-.87-.1,12.64,12.64,0,0,1-.81-3.26,1.59,1.59,0,1,1,3.16.34Z"/><path class="cls-2" d="M34,172.23a12.89,12.89,0,0,1-2.47,2.29.49.49,0,0,1-.78-.4,12.86,12.86,0,0,1,.41-3.34A1.59,1.59,0,0,1,34,172.23Z"/><path class="cls-2" d="M24.54,162.47a12.71,12.71,0,0,1-3.12,1.24.48.48,0,0,1-.58-.65,12.68,12.68,0,0,1,1.58-3,1.59,1.59,0,0,1,2.12,2.37Z"/><path class="cls-2" d="M19.23,150a12.53,12.53,0,0,1-3.37,0,.49.49,0,0,1-.31-.82,12.55,12.55,0,0,1,2.54-2.2,1.59,1.59,0,1,1,1.14,3Z"/><path class="cls-2" d="M18.75,136.38a12.74,12.74,0,0,1-3.16-1.16.48.48,0,0,1,0-.87,12.79,12.79,0,0,1,3.16-1.15,1.59,1.59,0,0,1,0,3.18Z"/><path class="cls-2" d="M23.16,123.53a13,13,0,0,1-2.53-2.21.49.49,0,0,1,.32-.82,12.82,12.82,0,0,1,3.36.06,1.59,1.59,0,1,1-1.15,3Z"/><path class="cls-2" d="M31.89,113.12a12.91,12.91,0,0,1-1.57-3,.48.48,0,0,1,.59-.64A12.63,12.63,0,0,1,34,110.76a1.59,1.59,0,1,1-2.14,2.36Z"/><path class="cls-2" d="M43.77,106.53a12.56,12.56,0,0,1-.39-3.34.48.48,0,0,1,.77-.4,12.49,12.49,0,0,1,2.46,2.3,1.59,1.59,0,0,1-.7,2.14A1.6,1.6,0,0,1,43.77,106.53Z"/><path class="cls-2" d="M57.23,104.63a12.73,12.73,0,0,1,.82-3.26.48.48,0,0,1,.87-.09,12.9,12.9,0,0,1,1.47,3,1.59,1.59,0,1,1-3.16.33Z"/><path class="cls-2" d="M70.47,107.68a12.5,12.5,0,0,1,1.94-2.75.48.48,0,0,1,.84.23,12.75,12.75,0,0,1,.29,3.35,1.59,1.59,0,1,1-3.07-.83Z"/><path class="cls-2" d="M81.74,115.27a12.46,12.46,0,0,1,2.79-1.87.48.48,0,0,1,.71.51,12.94,12.94,0,0,1-.93,3.24,1.59,1.59,0,0,1-2.57-1.88Z"/><path class="cls-2" d="M89.54,126.4a12.58,12.58,0,0,1,3.28-.75.48.48,0,0,1,.47.73,12.56,12.56,0,0,1-2,2.69,1.59,1.59,0,1,1-1.72-2.67Z"/><path class="cls-2" d="M92.83,139.58a12.83,12.83,0,0,1,3.33.48.48.48,0,0,1,.18.85,12.78,12.78,0,0,1-2.86,1.78,1.59,1.59,0,1,1-.65-3.11Z"/><path class="cls-4" d="M114.11,134V171.6a31.18,31.18,0,0,0-31.19,31.19H45.3A31.18,31.18,0,0,0,14.11,171.6V134A31.18,31.18,0,0,0,45.3,102.79H82.92A31.18,31.18,0,0,0,114.11,134Z"/><g class="cls-5"><line class="cls-6" x1="18.84" y1="106.97" x2="109.8" y2="197.94"/><line class="cls-6" x1="109.8" y1="106.97" x2="18.84" y2="197.94"/><line class="cls-6" x1="4.9" y1="127.84" x2="123.74" y2="177.07"/><line class="cls-6" x1="88.93" y1="93.03" x2="39.7" y2="211.88"/><line class="cls-6" y1="152.45" x2="128.64" y2="152.45"/><line class="cls-6" x1="64.32" y1="88.14" x2="64.32" y2="216.77"/><line class="cls-6" x1="4.9" y1="177.07" x2="123.74" y2="127.84"/><line class="cls-6" x1="39.7" y1="93.03" x2="88.93" y2="211.88"/></g><circle class="cls-2" cx="64.32" cy="154.46" r="29.79"/><path class="cls-7" d="M64.32,127.17a27.29,27.29,0,1,0,27.29,27.29,27.29,27.29,0,0,0-27.29-27.29m0-5A32.29,32.29,0,1,1,32,154.46a32.33,32.33,0,0,1,32.29-32.29Z"/><path class="cls-8" d="M69,136.32a9.81,9.81,0,0,1-4.92,8.51,9.83,9.83,0,0,1,0-17A9.81,9.81,0,0,1,69,136.32Z"/><path class="cls-8" d="M73.6,142.3a9.78,9.78,0,0,1-9.49,2.53,9.83,9.83,0,0,1,12-12A9.81,9.81,0,0,1,73.6,142.3Z"/><path class="cls-8" d="M61.57,135.34a9.81,9.81,0,0,1,2.54,9.49,9.83,9.83,0,0,1-12-12A9.81,9.81,0,0,1,61.57,135.34Z"/><path class="cls-8" d="M81.05,149.29c0-4.56-7.72-8.25-17.25-8.25s-17.25,3.69-17.25,8.25c0,9,3.84,22,11.27,29.17,0,0,5.32,5.25,12,0C74.77,174.53,81.05,158.62,81.05,149.29Z"/><path class="cls-7" d="M64.11,127.81a9.85,9.85,0,0,0-4.58,6,9.75,9.75,0,0,0-4.91-1.32,10,10,0,0,0-2.55.34,9.79,9.79,0,0,0,2.55,9.49s0,0,0,0c-4.85,1.46-8.09,4-8.09,7,0,9,3.83,22,11.27,29.17a9.09,9.09,0,0,0,5.91,2.33,9.69,9.69,0,0,0,6.06-2.33c5-3.93,11.26-19.84,11.26-29.17,0-2.85-3-5.36-7.62-6.85l.17-.14a9.81,9.81,0,0,0,2.54-9.5,9.88,9.88,0,0,0-7.45,1,9.85,9.85,0,0,0-4.58-6m0-3.46,1.5.86a12.94,12.94,0,0,1,4.69,4.69,13,13,0,0,1,6.62,0l1.68.45L79,132a12.86,12.86,0,0,1-1,9.13c3.83,2,6,4.9,6,8.14,0,10.16-6.61,27-12.4,31.53a12.71,12.71,0,0,1-7.92,3,12,12,0,0,1-8-3.17c-8-7.69-12.19-21.59-12.19-31.33,0-3.33,2.36-6.32,6.46-8.38a12.87,12.87,0,0,1-.84-8.88l.45-1.68,1.67-.45a12.75,12.75,0,0,1,6.64,0,12.86,12.86,0,0,1,4.67-4.68l1.5-.87Z"/><path class="cls-7" d="M65.7,150a15.55,15.55,0,0,1-1.4,3.84.58.58,0,0,1-1.06,0,15.55,15.55,0,0,1-1.4-3.84,1.93,1.93,0,0,1,3.86,0Z"/><path class="cls-7" d="M56.78,153a15.1,15.1,0,0,1,.14,4.08.58.58,0,0,1-1,.4,15.58,15.58,0,0,1-2.74-3A1.93,1.93,0,0,1,56.78,153Z"/><path class="cls-7" d="M70.36,153a16,16,0,0,0-.14,4.08.58.58,0,0,0,1,.4,15,15,0,0,0,2.74-3A1.93,1.93,0,0,0,70.36,153Z"/><path class="cls-7" d="M65.7,159a15.36,15.36,0,0,1-1.4,3.83.58.58,0,0,1-1.06,0,15.36,15.36,0,0,1-1.4-3.83,1.93,1.93,0,1,1,3.86,0Z"/><path class="cls-7" d="M65.49,168a15.5,15.5,0,0,1-1.4,3.83.58.58,0,0,1-1.06,0,15.5,15.5,0,0,1-1.4-3.83,1.93,1.93,0,1,1,3.86,0Z"/><path class="cls-7" d="M57.89,161.42A15.08,15.08,0,0,1,58,165.5a.58.58,0,0,1-1,.39,15.57,15.57,0,0,1-2.74-3,1.93,1.93,0,1,1,3.58-1.45Z"/><path class="cls-7" d="M69.22,161.42a15.5,15.5,0,0,0-.14,4.08.58.58,0,0,0,1,.39,15.25,15.25,0,0,0,2.74-3,1.93,1.93,0,1,0-3.58-1.45Z"/><rect class="cls-4" x="114.29" y="102.69" width="100.21" height="100.21"/><path class="cls-7" d="M164.39,200.19a47.4,47.4,0,1,1,47.4-47.4A47.45,47.45,0,0,1,164.39,200.19Z"/><path class="cls-7" d="M164.39,107.78a45,45,0,1,0,45,45,45.06,45.06,0,0,0-45-45m0-4.78a49.79,49.79,0,1,1-49.78,49.79A49.79,49.79,0,0,1,164.39,103Z"/><path class="cls-2" d="M137.45,188.84c.44-1.06,3.14-4.26,5.17-6.58a1.2,1.2,0,0,1,2.1.87c-.21,3.07-.56,7.25-1,8.31a3.39,3.39,0,0,1-6.27-2.6Z"/><path class="cls-2" d="M202.54,131.5c-.81.81-4.53,2.73-7.3,4.1a1.2,1.2,0,0,1-1.6-1.61c1.37-2.76,3.29-6.48,4.1-7.29a3.39,3.39,0,0,1,4.8,4.8Z"/><path class="cls-2" d="M120.46,159.57c1.06-.44,5.23-.8,8.31-1a1.19,1.19,0,0,1,.87,2.09c-2.33,2-5.53,4.74-6.59,5.18a3.39,3.39,0,1,1-2.59-6.27Z"/><path class="cls-2" d="M207,165c-1.14,0-5.14-1.27-8.06-2.25a1.2,1.2,0,0,1,0-2.27c2.92-1,6.92-2.26,8.06-2.26a3.39,3.39,0,1,1,0,6.78Z"/><path class="cls-2" d="M129.14,126.85c1.06.44,4.26,3.14,6.59,5.17a1.2,1.2,0,0,1-.87,2.1c-3.08-.21-7.25-.56-8.31-1a3.39,3.39,0,0,1,2.59-6.27Z"/><path class="cls-2" d="M186.49,191.94c-.81-.81-2.74-4.53-4.11-7.29A1.2,1.2,0,0,1,184,183c2.76,1.37,6.49,3.29,7.3,4.11a3.39,3.39,0,1,1-4.8,4.79Z"/><path class="cls-2" d="M158.42,109.86c.44,1.06.79,5.24,1,8.31a1.2,1.2,0,0,1-2.1.87c-2-2.32-4.73-5.52-5.17-6.58a3.39,3.39,0,0,1,6.27-2.6Z"/><path class="cls-2" d="M152.94,196.44c0-1.15,1.27-5.14,2.26-8.06a1.2,1.2,0,0,1,2.27,0c1,2.92,2.26,6.91,2.26,8.06a3.4,3.4,0,0,1-6.79,0Z"/><path class="cls-2" d="M191.13,118.55c-.44,1.06-3.14,4.26-5.17,6.58a1.2,1.2,0,0,1-2.1-.87c.21-3.07.56-7.25,1-8.31a3.39,3.39,0,0,1,6.27,2.6Z"/><path class="cls-2" d="M126,175.89c.81-.81,4.53-2.73,7.3-4.1a1.19,1.19,0,0,1,1.6,1.6c-1.37,2.77-3.29,6.49-4.1,7.3a3.39,3.39,0,1,1-4.8-4.8Z"/><path class="cls-2" d="M208.12,147.82c-1.06.44-5.23.8-8.31,1a1.2,1.2,0,0,1-.87-2.1c2.33-2,5.53-4.73,6.59-5.17a3.39,3.39,0,0,1,2.59,6.27Z"/><path class="cls-2" d="M121.55,142.35c1.14,0,5.14,1.27,8.06,2.25a1.2,1.2,0,0,1,0,2.27c-2.92,1-6.92,2.26-8.06,2.26a3.39,3.39,0,1,1,0-6.78Z"/><path class="cls-2" d="M199.44,180.54c-1.06-.44-4.26-3.14-6.59-5.17a1.2,1.2,0,0,1,.87-2.1c3.08.21,7.25.56,8.31,1a3.39,3.39,0,1,1-2.59,6.27Z"/><path class="cls-2" d="M142.09,115.45c.81.81,2.74,4.53,4.11,7.29a1.2,1.2,0,0,1-1.61,1.61c-2.76-1.37-6.49-3.3-7.3-4.11a3.39,3.39,0,0,1,4.8-4.79Z"/><path class="cls-2" d="M170.16,197.53c-.44-1.06-.79-5.24-1-8.32a1.2,1.2,0,0,1,2.1-.86c2,2.32,4.73,5.52,5.17,6.58a3.39,3.39,0,0,1-6.27,2.6Z"/><path class="cls-2" d="M175.64,111c0,1.15-1.27,5.14-2.26,8.06a1.2,1.2,0,0,1-2.27,0c-1-2.92-2.26-6.91-2.26-8.06a3.4,3.4,0,0,1,6.79,0Z"/><path class="cls-2" d="M147,176.35a31,31,0,0,1,4.13-3.58.78.78,0,0,1,1.24.82,31.74,31.74,0,0,1-1.68,5.2,2.21,2.21,0,1,1-3.69-2.44Z"/><path class="cls-2" d="M188.92,139.61a30.8,30.8,0,0,1-5.19,1.72.78.78,0,0,1-.83-1.23,32,32,0,0,1,3.55-4.16,2.21,2.21,0,0,1,2.47,3.67Z"/><path class="cls-2" d="M136.13,157.5a32.63,32.63,0,0,1,5.45.4.79.79,0,0,1,.3,1.46,31.19,31.19,0,0,1-4.87,2.49,2.22,2.22,0,0,1-.88-4.35Z"/><path class="cls-2" d="M191.75,161.18a32.21,32.21,0,0,1-4.88-2.46.78.78,0,0,1,.28-1.45,30.55,30.55,0,0,1,5.45-.44,2.22,2.22,0,1,1-.85,4.35Z"/><path class="cls-2" d="M141.77,136.5a31.3,31.3,0,0,1,3.58,4.14.78.78,0,0,1-.82,1.23,31.29,31.29,0,0,1-5.21-1.68,2.21,2.21,0,1,1,2.45-3.69Z"/><path class="cls-2" d="M178.5,178.43a33.13,33.13,0,0,1-1.72-5.19.78.78,0,0,1,1.23-.83,31,31,0,0,1,4.17,3.54,2.22,2.22,0,0,1-3.68,2.48Z"/><path class="cls-2" d="M160.61,125.63a30.62,30.62,0,0,1-.4,5.46.78.78,0,0,1-1.45.29,31.19,31.19,0,0,1-2.49-4.87,2.21,2.21,0,1,1,4.34-.88Z"/><path class="cls-2" d="M156.94,181.25a31.93,31.93,0,0,1,2.45-4.88.79.79,0,0,1,1.46.28,31.55,31.55,0,0,1,.44,5.45,2.22,2.22,0,1,1-4.35-.85Z"/><path class="cls-2" d="M181.62,131.27a31.9,31.9,0,0,1-4.14,3.58.79.79,0,0,1-1.24-.82,32.27,32.27,0,0,1,1.68-5.21,2.22,2.22,0,0,1,3.7,2.45Z"/><path class="cls-2" d="M139.69,168a31.12,31.12,0,0,1,5.19-1.72.78.78,0,0,1,.83,1.23,31.37,31.37,0,0,1-3.54,4.16,2.21,2.21,0,1,1-2.48-3.67Z"/><path class="cls-2" d="M192.48,150.11a31.32,31.32,0,0,1-5.45-.39.79.79,0,0,1-.3-1.46,32.1,32.1,0,0,1,4.87-2.49,2.21,2.21,0,0,1,.88,4.34Z"/><path class="cls-2" d="M136.86,146.44a31.48,31.48,0,0,1,4.89,2.45.79.79,0,0,1-.29,1.46,31.41,31.41,0,0,1-5.45.44,2.22,2.22,0,1,1,.85-4.35Z"/><path class="cls-2" d="M186.84,171.12a31.32,31.32,0,0,1-3.57-4.14.78.78,0,0,1,.82-1.23,29.89,29.89,0,0,1,5.2,1.68,2.21,2.21,0,1,1-2.45,3.69Z"/><path class="cls-2" d="M150.11,129.19a31.12,31.12,0,0,1,1.72,5.19.78.78,0,0,1-1.23.83,31.61,31.61,0,0,1-4.17-3.54,2.22,2.22,0,1,1,3.68-2.48Z"/><path class="cls-2" d="M168,182a31.61,31.61,0,0,1,.4-5.46.78.78,0,0,1,1.45-.29,31.91,31.91,0,0,1,2.5,4.86A2.22,2.22,0,0,1,168,182Z"/><path class="cls-2" d="M171.68,126.36a31.75,31.75,0,0,1-2.46,4.89.78.78,0,0,1-1.45-.28,30.55,30.55,0,0,1-.44-5.45,2.22,2.22,0,1,1,4.35.84Z"/><path class="cls-8" d="M173.26,155a7.21,7.21,0,0,1-5.1-2.1,7.31,7.31,0,0,1-1.89-3.27,7.23,7.23,0,0,0,5.11-8.83,6.83,6.83,0,0,1,1.88-.26,7.23,7.23,0,1,1,0,14.46Z"/><path class="cls-8" d="M173.26,155a7.21,7.21,0,0,1-5.1-2.1,7.31,7.31,0,0,1-1.89-3.27,7.23,7.23,0,0,0,5.11-8.83,6.83,6.83,0,0,1,1.88-.26,7.23,7.23,0,1,1,0,14.46Z"/><path class="cls-8" d="M162.51,149.67a7.38,7.38,0,0,1-1.73-.72,7.22,7.22,0,0,1-3.37-8.11,7.21,7.21,0,0,1,5.1,8.83Z"/><path class="cls-8" d="M162.51,149.67a7.21,7.21,0,0,0-5.1-8.83,7.22,7.22,0,1,1,5.1,8.83Z"/><path class="cls-8" d="M162.51,149.67a7.38,7.38,0,0,1-1.73-.72,7.22,7.22,0,0,1-3.37-8.11,7.21,7.21,0,0,1,5.1,8.83Z"/><path class="cls-8" d="M150.42,152.93a7.11,7.11,0,0,1-1.15-1.5,7.23,7.23,0,0,1,2.65-9.88,7.15,7.15,0,0,1,5.49-.71,7.22,7.22,0,0,1,3.22,12.09,7.08,7.08,0,0,1-1.49,1.14A7.24,7.24,0,0,1,150.42,152.93Z"/><path class="cls-8" d="M150.42,152.93a7.11,7.11,0,0,1-1.15-1.5,7.23,7.23,0,0,1,2.65-9.88,7.15,7.15,0,0,1,5.49-.71,7.22,7.22,0,0,1,3.22,12.09,7.08,7.08,0,0,1-1.49,1.14A7.24,7.24,0,0,1,150.42,152.93Z"/><path class="cls-8" d="M155.53,150.82a7.23,7.23,0,1,1-7.23,7.23A7.23,7.23,0,0,1,155.53,150.82Z"/><path class="cls-8" d="M155.53,150.82a7.23,7.23,0,1,1-7.23,7.23A7.23,7.23,0,0,1,155.53,150.82Z"/><path class="cls-8" d="M158.14,159.56a7.22,7.22,0,1,1,2.64,9.87A7.23,7.23,0,0,1,158.14,159.56Z"/><path class="cls-8" d="M158.14,159.56a7.22,7.22,0,1,1,2.64,9.87A7.23,7.23,0,0,1,158.14,159.56Z"/><path class="cls-8" d="M167,161.66a7.23,7.23,0,1,1,9.87,2.65A7.23,7.23,0,0,1,167,161.66Z"/><path class="cls-8" d="M167,161.66a7.23,7.23,0,1,1,9.87,2.65A7.23,7.23,0,0,1,167,161.66Z"/><path class="cls-8" d="M173.26,155a7.21,7.21,0,0,1-5.1-2.1,7.31,7.31,0,0,1-1.89-3.27,7.23,7.23,0,0,0,5.11-8.83,6.83,6.83,0,0,1,1.88-.26,7.23,7.23,0,1,1,0,14.46Z"/><path class="cls-8" d="M173.26,155a7.21,7.21,0,0,1-5.1-2.1,7.31,7.31,0,0,1-1.89-3.27,7.23,7.23,0,0,0,5.11-8.83,6.83,6.83,0,0,1,1.88-.26,7.23,7.23,0,1,1,0,14.46Z"/><path class="cls-7" d="M164.4,135.46a7.26,7.26,0,0,0-7,5.38,7.22,7.22,0,0,0-8.14,10.59,7.11,7.11,0,0,0,1.15,1.5h0a7.23,7.23,0,0,0,5.11,12.35,7.29,7.29,0,0,0,1.88-.26,7.22,7.22,0,0,0,13.24,1.76,7,7,0,0,0,.72-1.75,7.62,7.62,0,0,0,1.9.25,7.14,7.14,0,0,0,3.6-1,7.2,7.2,0,0,0,1.49-11.37h0a7.23,7.23,0,0,0-5.1-12.36,6.83,6.83,0,0,0-1.88.26,7.26,7.26,0,0,0-7-5.38m0-5h0a12.25,12.25,0,0,1,10,5.18,12.24,12.24,0,0,1,10,17.3,12.24,12.24,0,0,1-10,17.29,12.25,12.25,0,0,1-20,0,12.24,12.24,0,0,1-10-17.3,12.24,12.24,0,0,1,5-15.7,12.24,12.24,0,0,1,5-1.6,12.29,12.29,0,0,1,10-5.17Z"/><path class="cls-8" d="M164.39,160.16a7.23,7.23,0,1,1,7.23-7.23A7.23,7.23,0,0,1,164.39,160.16Z"/><rect class="cls-4" x="214.36" y="2.9" width="100.21" height="100.21"/><path class="cls-7" d="M264.46,100.4A47.4,47.4,0,1,1,311.86,53,47.45,47.45,0,0,1,264.46,100.4Z"/><path class="cls-7" d="M264.46,8a45,45,0,1,0,45,45,45.05,45.05,0,0,0-45-45m0-4.78A49.79,49.79,0,1,1,214.68,53,49.79,49.79,0,0,1,264.46,3.22Z"/><path class="cls-2" d="M237.52,89.05c.44-1.06,3.14-4.26,5.17-6.58a1.2,1.2,0,0,1,2.1.87c-.21,3.08-.57,7.25-1,8.31a3.39,3.39,0,1,1-6.27-2.6Z"/><path class="cls-2" d="M302.61,31.71c-.81.81-4.53,2.73-7.3,4.1a1.2,1.2,0,0,1-1.61-1.6c1.38-2.77,3.3-6.49,4.11-7.3a3.39,3.39,0,1,1,4.8,4.8Z"/><path class="cls-2" d="M220.53,59.78c1.06-.44,5.23-.79,8.31-1a1.2,1.2,0,0,1,.87,2.1c-2.33,2-5.53,4.73-6.59,5.17a3.39,3.39,0,0,1-2.59-6.27Z"/><path class="cls-2" d="M307.1,65.26C306,65.26,302,64,299,63a1.2,1.2,0,0,1,0-2.27c2.92-1,6.92-2.26,8.06-2.26a3.4,3.4,0,0,1,0,6.79Z"/><path class="cls-2" d="M229.21,27.07c1.06.43,4.26,3.14,6.59,5.17a1.19,1.19,0,0,1-.87,2.09c-3.08-.2-7.25-.56-8.31-1a3.39,3.39,0,1,1,2.59-6.26Z"/><path class="cls-2" d="M286.56,92.16c-.81-.81-2.74-4.54-4.11-7.3a1.2,1.2,0,0,1,1.61-1.61c2.76,1.37,6.48,3.3,7.3,4.11a3.39,3.39,0,1,1-4.8,4.8Z"/><path class="cls-2" d="M258.49,10.07c.44,1.06.79,5.24,1,8.32a1.2,1.2,0,0,1-2.1.87c-2-2.33-4.73-5.53-5.17-6.59a3.39,3.39,0,0,1,6.27-2.6Z"/><path class="cls-2" d="M253,96.65c0-1.15,1.27-5.14,2.26-8.06a1.2,1.2,0,0,1,2.27,0c1,2.92,2.26,6.91,2.26,8.06a3.4,3.4,0,0,1-6.79,0Z"/><path class="cls-2" d="M291.2,18.76c-.44,1.06-3.14,4.26-5.17,6.59a1.2,1.2,0,0,1-2.1-.87c.21-3.08.56-7.26,1-8.32a3.39,3.39,0,0,1,6.27,2.6Z"/><path class="cls-2" d="M226.11,76.11c.81-.81,4.53-2.74,7.3-4.11a1.2,1.2,0,0,1,1.6,1.61c-1.37,2.76-3.29,6.48-4.1,7.29a3.39,3.39,0,1,1-4.8-4.79Z"/><path class="cls-2" d="M308.19,48c-1.06.43-5.23.79-8.31,1a1.2,1.2,0,0,1-.87-2.1c2.32-2,5.53-4.73,6.58-5.17a3.39,3.39,0,1,1,2.6,6.27Z"/><path class="cls-2" d="M221.62,42.56c1.14,0,5.13,1.27,8.06,2.26a1.2,1.2,0,0,1,0,2.27c-2.93,1-6.92,2.25-8.06,2.25a3.39,3.39,0,1,1,0-6.78Z"/><path class="cls-2" d="M299.51,80.75c-1.06-.44-4.27-3.14-6.59-5.17a1.2,1.2,0,0,1,.87-2.1c3.08.21,7.25.56,8.31,1a3.39,3.39,0,1,1-2.59,6.27Z"/><path class="cls-2" d="M242.16,15.66c.81.81,2.73,4.53,4.11,7.3a1.2,1.2,0,0,1-1.61,1.6c-2.77-1.37-6.49-3.29-7.3-4.1a3.39,3.39,0,1,1,4.8-4.8Z"/><path class="cls-2" d="M270.23,97.74c-.44-1.06-.79-5.23-1-8.31a1.2,1.2,0,0,1,2.1-.87c2,2.32,4.73,5.52,5.17,6.58a3.39,3.39,0,1,1-6.27,2.6Z"/><path class="cls-2" d="M275.71,11.16c0,1.15-1.27,5.14-2.26,8.07a1.2,1.2,0,0,1-2.27,0c-1-2.93-2.26-6.92-2.26-8.07a3.4,3.4,0,0,1,6.79,0Z"/><path class="cls-2" d="M247.07,76.56A31,31,0,0,1,251.2,73a.79.79,0,0,1,1.24.82A32.27,32.27,0,0,1,250.76,79a2.21,2.21,0,1,1-3.69-2.45Z"/><path class="cls-2" d="M289,39.83a32.76,32.76,0,0,1-5.19,1.72.79.79,0,0,1-.83-1.24,32,32,0,0,1,3.55-4.16A2.22,2.22,0,0,1,289,39.83Z"/><path class="cls-2" d="M236.2,57.72a31.32,31.32,0,0,1,5.45.39.79.79,0,0,1,.3,1.46,32.1,32.1,0,0,1-4.87,2.49,2.21,2.21,0,0,1-.88-4.34Z"/><path class="cls-2" d="M291.82,61.39a31.93,31.93,0,0,1-4.88-2.45.78.78,0,0,1,.28-1.46,31.48,31.48,0,0,1,5.45-.44,2.22,2.22,0,0,1-.85,4.35Z"/><path class="cls-2" d="M241.84,36.71a31.32,31.32,0,0,1,3.57,4.14.78.78,0,0,1-.81,1.24,32.27,32.27,0,0,1-5.21-1.68,2.22,2.22,0,0,1,2.45-3.7Z"/><path class="cls-2" d="M278.57,78.64a32.09,32.09,0,0,1-1.72-5.19.78.78,0,0,1,1.23-.83,31.61,31.61,0,0,1,4.17,3.54,2.22,2.22,0,0,1-3.68,2.48Z"/><path class="cls-2" d="M260.68,25.85a31.57,31.57,0,0,1-.4,5.45.78.78,0,0,1-1.45.29,31.64,31.64,0,0,1-2.49-4.86,2.21,2.21,0,1,1,4.34-.88Z"/><path class="cls-2" d="M257,81.47a30.59,30.59,0,0,1,2.45-4.89.79.79,0,0,1,1.46.29,32.46,32.46,0,0,1,.44,5.45,2.22,2.22,0,1,1-4.35-.85Z"/><path class="cls-2" d="M281.69,31.49a32.82,32.82,0,0,1-4.14,3.57.78.78,0,0,1-1.24-.82A31.74,31.74,0,0,1,278,29a2.22,2.22,0,1,1,3.7,2.45Z"/><path class="cls-2" d="M239.76,68.22A31.12,31.12,0,0,1,245,66.5a.78.78,0,0,1,.83,1.23,30.61,30.61,0,0,1-3.55,4.16,2.21,2.21,0,1,1-2.47-3.67Z"/><path class="cls-2" d="M292.55,50.33a31.57,31.57,0,0,1-5.45-.4.78.78,0,0,1-.3-1.45,31.44,31.44,0,0,1,4.87-2.5,2.22,2.22,0,0,1,.88,4.35Z"/><path class="cls-2" d="M236.93,46.65a31.75,31.75,0,0,1,4.89,2.46.78.78,0,0,1-.29,1.45,30.49,30.49,0,0,1-5.45.44,2.22,2.22,0,1,1,.85-4.35Z"/><path class="cls-2" d="M286.91,71.33a31.08,31.08,0,0,1-3.57-4.13.78.78,0,0,1,.82-1.24,31.11,31.11,0,0,1,5.2,1.68,2.21,2.21,0,0,1-2.45,3.69Z"/><path class="cls-2" d="M250.18,29.4a31.31,31.31,0,0,1,1.72,5.2.78.78,0,0,1-1.23.82,31.61,31.61,0,0,1-4.17-3.54,2.22,2.22,0,1,1,3.68-2.48Z"/><path class="cls-2" d="M268.07,82.2a31.61,31.61,0,0,1,.4-5.46.78.78,0,0,1,1.45-.29,30.32,30.32,0,0,1,2.49,4.87,2.21,2.21,0,1,1-4.34.88Z"/><path class="cls-2" d="M271.74,26.58a31,31,0,0,1-2.45,4.88.79.79,0,0,1-1.46-.28,32.6,32.6,0,0,1-.44-5.45,2.22,2.22,0,0,1,4.35.85Z"/><path class="cls-2" d="M264.06,72.12a18.51,18.51,0,1,1,13.09-5.42A18.43,18.43,0,0,1,264.06,72.12Z"/><path class="cls-7" d="M264.06,36.66a17,17,0,1,0,12,5,16.9,16.9,0,0,0-12-5m0-3.11a20.07,20.07,0,1,1-14.19,5.88,19.93,19.93,0,0,1,14.19-5.88Z"/><path class="cls-8" d="M274.09,47.71a6.09,6.09,0,0,1-5.9,1.58,6.11,6.11,0,0,1,7.48-7.48A6.09,6.09,0,0,1,274.09,47.71Z"/><path class="cls-8" d="M273.48,52.35a6.09,6.09,0,0,1-5.29-3.06,6.11,6.11,0,0,1,10.58,0A6.09,6.09,0,0,1,273.48,52.35Z"/><path class="cls-8" d="M271.25,44a6.09,6.09,0,0,1-3.06,5.29,6.1,6.1,0,0,1,0-10.57A6.08,6.08,0,0,1,271.25,44Z"/><path class="cls-8" d="M273.68,58.69c2-2,.23-7-3.95-11.2s-9.2-6-11.21-4c-3.95,4-8,11.35-7.86,17.76a5.51,5.51,0,0,0,5.26,5.26C259.83,67,269.58,62.79,273.68,58.69Z"/><path class="cls-7" d="M266.65,52.24a9.61,9.61,0,0,1-2.3,1.07.37.37,0,0,1-.47-.47,9.61,9.61,0,0,1,1.07-2.3,1.2,1.2,0,0,1,1.7,0A1.22,1.22,0,0,1,266.65,52.24Z"/><path class="cls-7" d="M261.38,49.67a9.6,9.6,0,0,1-1.73,1.85.36.36,0,0,1-.6-.26,9.58,9.58,0,0,1,.12-2.53,1.2,1.2,0,1,1,2.21.94Z"/><path class="cls-7" d="M267.35,55.63a9.64,9.64,0,0,0-1.85,1.73.36.36,0,0,0,.25.61,9.51,9.51,0,0,0,2.53-.13,1.2,1.2,0,0,0-.93-2.21Z"/><path class="cls-7" d="M262.69,56.2a9.64,9.64,0,0,1-2.3,1.06.36.36,0,0,1-.47-.46A9.61,9.61,0,0,1,261,54.5a1.2,1.2,0,1,1,1.7,1.7Z"/><path class="cls-7" d="M258.64,60.06a9.61,9.61,0,0,1-2.3,1.07.37.37,0,0,1-.47-.47,9.61,9.61,0,0,1,1.07-2.3,1.2,1.2,0,0,1,1.7,1.7Z"/><path class="cls-7" d="M258.18,53.85a9.94,9.94,0,0,1-1.73,1.85.37.37,0,0,1-.61-.26,9.51,9.51,0,0,1,.13-2.53,1.2,1.2,0,1,1,2.21.94Z"/><path class="cls-7" d="M263.15,58.82a9.94,9.94,0,0,0-1.85,1.73.37.37,0,0,0,.26.61,9.51,9.51,0,0,0,2.53-.13,1.2,1.2,0,1,0-.94-2.21Z"/><rect class="cls-3" x="14.25" y="2.64" width="100.21" height="100.21"/><circle class="cls-9" cx="64.36" cy="24.63" r="19.89"/><circle class="cls-9" cx="92.48" cy="52.75" r="19.89"/><circle class="cls-9" cx="64.36" cy="80.87" r="19.89"/><circle class="cls-9" cx="36.24" cy="52.75" r="19.89"/><line class="cls-9" x1="16.35" y1="4.91" x2="112.37" y2="4.91"/><line class="cls-9" x1="16.35" y1="11.29" x2="112.37" y2="11.29"/><line class="cls-9" x1="16.35" y1="17.68" x2="112.37" y2="17.68"/><line class="cls-9" x1="16.35" y1="24.06" x2="112.37" y2="24.06"/><line class="cls-9" x1="16.35" y1="30.44" x2="112.37" y2="30.44"/><line class="cls-9" x1="16.35" y1="36.82" x2="112.37" y2="36.82"/><line class="cls-9" x1="16.35" y1="43.2" x2="112.37" y2="43.2"/><line class="cls-9" x1="16.35" y1="49.59" x2="112.37" y2="49.59"/><line class="cls-9" x1="16.35" y1="55.97" x2="112.37" y2="55.97"/><line class="cls-9" x1="16.35" y1="62.35" x2="112.37" y2="62.35"/><line class="cls-9" x1="16.35" y1="68.73" x2="112.37" y2="68.73"/><line class="cls-9" x1="16.35" y1="75.11" x2="112.37" y2="75.11"/><line class="cls-9" x1="16.35" y1="81.49" x2="112.37" y2="81.49"/><line class="cls-9" x1="16.35" y1="87.88" x2="112.37" y2="87.88"/><line class="cls-9" x1="16.35" y1="94.26" x2="112.37" y2="94.26"/><line class="cls-9" x1="16.35" y1="100.64" x2="112.37" y2="100.64"/><circle class="cls-9" cx="64.36" cy="52.75" r="34.89"/><path class="cls-10" d="M107.69,11.75C111.22,18.21,94.1,43.06,87,46.09s-9.93.57-12.27-3.67-1.47-9.93,4.15-11.73S104.16,5.29,107.69,11.75Z"/><path class="cls-10" d="M21,93.58C16.9,87,34.63,60.31,42.48,58s10.07.47,11.76,5,1,9.73-5.76,11.12S25.15,100.15,21,93.58Z"/><path class="cls-10" d="M105.26,96.17C98.45,99.63,72.83,82.75,70,75.05s.12-10,4.5-12,9.77-1,11.33,5.19S112.06,92.72,105.26,96.17Z"/><path class="cls-10" d="M23.25,9.46C29.73,6,54.93,22.81,58.18,29.72s.76,9.78-3.45,12.21S44.89,43.16,42.88,38,16.78,12.9,23.25,9.46Z"/><path class="cls-11" d="M71.28,50.86c.29-3,2.79-5.78,5.4-7.75l3.38-2.57"/><path class="cls-11" d="M66.24,59.67c3,.29,5.78,2.79,7.76,5.4l2.56,3.38"/><path class="cls-11" d="M57.43,54.63c-.28,3-2.78,5.78-5.39,7.76L48.66,65"/><path class="cls-11" d="M62.47,45.82c-3-.29-5.78-2.78-7.75-5.39L52.16,37"/><line class="cls-2" x1="214.33" y1="39.63" x2="214.33" y2="37.27"/><line class="cls-2" x1="214.33" y1="17.94" x2="214.33" y2="15.51"/><line class="cls-2" x1="214.33" y1="89.95" x2="214.33" y2="87.33"/><line class="cls-2" x1="214.33" y1="67.87" x2="214.33" y2="65.51"/><line class="cls-2" x1="179.21" y1="102.64" x2="177.2" y2="102.64"/><line class="cls-2" x1="201.33" y1="102.64" x2="198.8" y2="102.64"/><line class="cls-2" x1="129.42" y1="102.64" x2="126.89" y2="102.64"/><line class="cls-2" x1="151.33" y1="102.64" x2="148.64" y2="102.64"/><line class="cls-2" x1="114.2" y1="67.76" x2="114.2" y2="65.5"/><line class="cls-2" x1="114.2" y1="89.63" x2="114.2" y2="87.1"/><line class="cls-2" x1="114.2" y1="17.71" x2="114.2" y2="15.19"/><line class="cls-2" x1="114.2" y1="39.63" x2="114.2" y2="37.18"/><path class="cls-2" d="M214.33,17.94V37.27a15.3,15.3,0,0,0,0,30.6V87.33h-.23a15.3,15.3,0,0,0-15.3,15.3H179.21a15.27,15.27,0,0,0-14.94-15h-.34a15.29,15.29,0,0,0-15.29,15.06H129.42v-.25A15.29,15.29,0,0,0,114.2,87.1V67.76a15.3,15.3,0,0,0,0-30.58V17.71h.15A15.3,15.3,0,0,0,129.65,2.5h19.09a15.29,15.29,0,0,0,30.57,0H199v.15A15.29,15.29,0,0,0,214.33,17.94Z"/><line class="cls-2" x1="151.33" y1="2.5" x2="148.74" y2="2.5"/><line class="cls-2" x1="129.65" y1="2.5" x2="127.21" y2="2.5"/><line class="cls-2" x1="201.64" y1="2.5" x2="199.04" y2="2.5"/><line class="cls-2" x1="179.31" y1="2.5" x2="177.21" y2="2.5"/><line class="cls-2" x1="139.26" y1="102.88" x2="139.26" y2="102.64"/><line class="cls-2" x1="139.26" y1="2.5" x2="139.26" y2="2.16"/><line class="cls-2" x1="114.2" y1="27.56" x2="113.87" y2="27.56"/><line class="cls-2" x1="214.58" y1="27.56" x2="214.33" y2="27.56"/><line class="cls-2" x1="189.19" y1="2.5" x2="189.19" y2="2.16"/><line class="cls-2" x1="189.19" y1="102.88" x2="189.19" y2="102.64"/><line class="cls-2" x1="214.58" y1="77.48" x2="214.33" y2="77.48"/><line class="cls-2" x1="114.2" y1="77.48" x2="113.87" y2="77.48"/><path class="cls-2" d="M114.2,87.1h-.08"/><path class="cls-2" d="M129.65,2.5V2.41"/><path class="cls-2" d="M179.22,102.88a1.93,1.93,0,0,0,0-.24"/><path class="cls-2" d="M148.64,102.64a1.93,1.93,0,0,0,0,.24"/><path class="cls-2" d="M114.2,67.76h-.58"/><path class="cls-2" d="M114.2,37.18h-.58"/><path class="cls-2" d="M148.74,2.5c0-.11,0-.23,0-.34"/><path class="cls-2" d="M179.32,2.16c0,.11,0,.23,0,.34"/><line class="cls-12" x1="214.5" y1="15.51" x2="214.5" y2="39.63"/><line class="cls-12" x1="214.5" y1="65.51" x2="214.5" y2="89.94"/><line class="cls-12" x1="201.49" y1="102.63" x2="177.37" y2="102.63"/><line class="cls-12" x1="151.49" y1="102.63" x2="127.06" y2="102.63"/><line class="cls-12" x1="114.37" y1="89.63" x2="114.37" y2="65.5"/><line class="cls-12" x1="114.37" y1="39.63" x2="114.37" y2="15.19"/><line class="cls-12" x1="127.37" y1="2.5" x2="151.5" y2="2.5"/><line class="cls-12" x1="177.37" y1="2.5" x2="201.81" y2="2.5"/><line class="cls-6" x1="139.43" y1="2.16" x2="139.43" y2="102.87"/><line class="cls-6" x1="214.75" y1="27.55" x2="114.04" y2="27.55"/><line class="cls-6" x1="189.36" y1="102.87" x2="189.36" y2="2.16"/><line class="cls-6" x1="114.04" y1="77.48" x2="214.75" y2="77.48"/><circle class="cls-2" cx="139.43" cy="27.62" r="15"/><path class="cls-7" d="M139.43,13.87a13.76,13.76,0,1,0,13.75,13.75,13.75,13.75,0,0,0-13.75-13.75m0-2.5a16.26,16.26,0,1,1-16.25,16.25,16.27,16.27,0,0,1,16.25-16.25Z"/><path class="cls-8" d="M171.71,54.54a7.28,7.28,0,1,1-14.56,0c0-4,3.26-9.82,7.28-9.82S171.71,50.52,171.71,54.54Z"/><path class="cls-6" d="M167.86,42.61a3.58,3.58,0,0,0-3.9,3.9v1.92"/><circle class="cls-12" cx="164.43" cy="52.57" r="15.3"/><path class="cls-12" d="M214.5,67.86a15.3,15.3,0,1,1,0-30.59"/><path class="cls-12" d="M214.5,17.94a15.3,15.3,0,0,1-15.3-15.3"/><path class="cls-12" d="M199,102.62a15.29,15.29,0,0,1,15.3-15.29"/><path class="cls-12" d="M114.29,87.09a15.3,15.3,0,0,1,15.3,15.3"/><path class="cls-12" d="M129.82,2.41a15.3,15.3,0,0,1-15.3,15.3"/><path class="cls-12" d="M148.8,102.87a15.3,15.3,0,0,1,30.59,0"/><path class="cls-12" d="M113.79,37.17a15.3,15.3,0,1,1,0,30.59"/><path class="cls-12" d="M179.49,2.16a15.3,15.3,0,1,1-30.59,0"/><path class="cls-8" d="M150.1,25.91a10.59,10.59,0,1,1-21.17,0c0-2.92,4.74-5.29,10.59-5.29S150.1,23,150.1,25.91Z"/><path class="cls-8" d="M150.1,25.91c0,2.93-4.74,5.29-10.58,5.29s-10.59-2.36-10.59-5.29,4.74-5.29,10.59-5.29S150.1,23,150.1,25.91Z"/><ellipse class="cls-13" cx="139.44" cy="25.91" rx="5.41" ry="1.8"/><circle class="cls-2" cx="189.54" cy="27.8" r="15"/><path class="cls-7" d="M189.54,14.05A13.76,13.76,0,1,0,203.29,27.8a13.76,13.76,0,0,0-13.75-13.75m0-2.5A16.26,16.26,0,1,1,173.28,27.8a16.27,16.27,0,0,1,16.26-16.25Z"/><path class="cls-8" d="M191.25,38.47a10.58,10.58,0,1,1,0-21.16c2.92,0,5.29,4.74,5.29,10.58S194.17,38.47,191.25,38.47Z"/><path class="cls-8" d="M191.25,38.47c-2.92,0-5.29-4.73-5.29-10.58s2.37-10.58,5.29-10.58,5.29,4.74,5.29,10.58S194.17,38.47,191.25,38.47Z"/><ellipse class="cls-13" cx="191.25" cy="27.81" rx="1.8" ry="5.41"/><circle class="cls-2" cx="189.36" cy="77.91" r="15"/><path class="cls-7" d="M189.36,64.15a13.76,13.76,0,1,0,13.75,13.76,13.76,13.76,0,0,0-13.75-13.76m0-2.5A16.26,16.26,0,1,1,173.1,77.91a16.28,16.28,0,0,1,16.26-16.26Z"/><path class="cls-8" d="M178.69,79.62a10.58,10.58,0,1,1,21.16,0c0,2.92-4.74,5.3-10.58,5.3S178.69,82.54,178.69,79.62Z"/><path class="cls-8" d="M178.69,79.62c0-2.92,4.74-5.29,10.58-5.29s10.58,2.37,10.58,5.29-4.74,5.3-10.58,5.3S178.69,82.54,178.69,79.62Z"/><ellipse class="cls-13" cx="189.35" cy="79.62" rx="5.41" ry="1.8"/><circle class="cls-2" cx="139.25" cy="77.73" r="15"/><path class="cls-7" d="M139.25,64A13.75,13.75,0,1,0,153,77.73,13.75,13.75,0,0,0,139.25,64m0-2.5A16.25,16.25,0,1,1,123,77.73a16.27,16.27,0,0,1,16.25-16.25Z"/><path class="cls-8" d="M137.54,67.06a10.59,10.59,0,0,1,0,21.17c-2.92,0-5.3-4.74-5.3-10.59S134.62,67.06,137.54,67.06Z"/><path class="cls-8" d="M137.54,67.06c2.92,0,5.29,4.74,5.29,10.58s-2.37,10.59-5.29,10.59-5.3-4.74-5.3-10.59S134.62,67.06,137.54,67.06Z"/><path class="cls-13" d="M135.74,77.72c0-3,.8-5.41,1.8-5.41s1.8,2.42,1.8,5.41-.81,5.42-1.8,5.42S135.74,80.71,135.74,77.72Z"/><line class="cls-12" x1="164.19" y1="17.46" x2="164.19" y2="37.27"/><line class="cls-12" x1="129.09" y1="52.47" x2="149.14" y2="52.47"/><line class="cls-12" x1="164.43" y1="67.86" x2="164.43" y2="87.58"/><line class="cls-12" x1="179.73" y1="52.57" x2="198.97" y2="52.57"/><rect class="cls-3" x="214.46" y="103.11" width="100" height="100"/><path class="cls-14" d="M243,114.6c4.71,4.71,14,31.1,14,31.1s-26.41-9.3-31.13-14A12.08,12.08,0,1,1,243,114.6Z"/><path class="cls-14" d="M303,131.63c-4.72,4.72-31.11,14-31.11,14s9.3-26.41,14-31.13A12.08,12.08,0,0,1,303,131.63Z"/><path class="cls-14" d="M285.94,191.62c-4.72-4.72-14-31.11-14-31.11s26.41,9.3,31.13,14a12.08,12.08,0,1,1-17.09,17.09Z"/><path class="cls-14" d="M226,174.59c4.72-4.72,31.11-14.05,31.11-14.05s-9.3,26.42-14,31.14A12.08,12.08,0,0,1,226,174.59Z"/><circle class="cls-14" cx="264.46" cy="122.4" r="12.08"/><circle class="cls-14" cx="264.46" cy="183.82" r="12.08" transform="translate(40.8 415.56) rotate(-80.82)"/><circle class="cls-14" cx="295.48" cy="153.11" r="12.08"/><circle class="cls-14" cx="234.39" cy="153.11" r="12.08"/><path class="cls-8" d="M286.35,153.11a6.43,6.43,0,1,1-6.43-6.43A6.43,6.43,0,0,1,286.35,153.11Z"/><path class="cls-8" d="M264.46,175a6.44,6.44,0,1,1,6.44-6.43A6.43,6.43,0,0,1,264.46,175Z"/><path class="cls-8" d="M242.57,153.11a6.44,6.44,0,1,1,6.43,6.43A6.43,6.43,0,0,1,242.57,153.11Z"/><path class="cls-8" d="M264.46,131.22a6.43,6.43,0,1,1-6.43,6.43A6.43,6.43,0,0,1,264.46,131.22Z"/><circle class="cls-14" cx="264.46" cy="153.11" r="12.08"/></g></g></svg>