<svg xmlns="http://www.w3.org/2000/svg" viewBox="0 0 101.13 163.08"><defs><style>.cls-1{fill:#F94616;}</style></defs><title>aup</title><g id="Capa_2" data-name="Capa 2"><g id="Capa_3" data-name="Capa 3"><path class="cls-1" d="M50.56,83.08A50.48,50.48,0,0,1,.1,132.58,50.48,50.48,0,0,1,50.56,83.08Z"/><path class="cls-1" d="M101.06,132.58A50.48,50.48,0,0,1,50.6,83.08,50.48,50.48,0,0,1,101.06,132.58Z"/><path class="cls-1" d="M101.06,132.58A50.48,50.48,0,0,1,50.6,83.08,50.48,50.48,0,0,1,101.06,132.58Z"/><path class="cls-1" d="M50.56,83.08A50.48,50.48,0,0,1,.1,132.58,50.48,50.48,0,0,1,50.56,83.08Z"/><path class="cls-1" d="M101.06,99.08A50.48,50.48,0,0,1,50.6,49.58,50.48,50.48,0,0,1,101.06,99.08Z"/><path class="cls-1" d="M50.56,49.58A50.48,50.48,0,0,1,.1,99.08,50.48,50.48,0,0,1,50.56,49.58Z"/><circle class="cls-1" cx="50.33" cy="138.08" r="25"/><polygon class="cls-1" points="0 50.57 50.57 0 101.13 50.57 0 50.57"/></g></g></svg>
