<svg xmlns="http://www.w3.org/2000/svg" xmlns:xlink="http://www.w3.org/1999/xlink" viewBox="0 0 259.07 216.41"><defs><style>.cls-1,.cls-10,.cls-11,.cls-12,.cls-3,.cls-5,.cls-8{fill:none;}.cls-2{fill:#f94616;}.cls-3,.cls-5,.cls-6,.cls-7,.cls-8{stroke:#f94616;}.cls-10,.cls-3{stroke-miterlimit:10;}.cls-3{stroke-width:8px;stroke-dasharray:5.02 5.02;}.cls-4{clip-path:url(#clip-path);}.cls-11,.cls-12,.cls-5,.cls-6,.cls-7,.cls-8{stroke-linecap:round;stroke-linejoin:round;}.cls-10,.cls-11,.cls-5,.cls-6{stroke-width:4px;}.cls-6,.cls-7{fill:#fff;}.cls-7,.cls-8{stroke-width:3.72px;}.cls-9{fill:#faf49a;}.cls-10{stroke:#bce4fa;}.cls-11,.cls-12{stroke:#000;}.cls-12{stroke-width:6px;}</style><clipPath id="clip-path"><path class="cls-1" d="M220.28,116.48A83,83,0,1,1,62.45,80.65L29.37,47.56A44,44,0,0,1,18,5.13a2,2,0,0,1,1.41-1.41,44,44,0,0,1,40.73,9.8,38.55,38.55,0,0,1,56-2.77,1.78,1.78,0,0,1,.66.44l22.34,22.33,1.33,0a82.19,82.19,0,0,1,59,27.93c1.79,2,3.49,4.15,5,6.28a82.75,82.75,0,0,1,15.78,48.7Z"/></clipPath></defs><title>mision</title><g id="Capa_2" data-name="Capa 2"><g id="Capa_3" data-name="Capa 3"><path class="cls-2" d="M137.3,29.35a87.13,87.13,0,1,1-87.12,87.13A87.13,87.13,0,0,1,137.3,29.35m0-4a91.13,91.13,0,1,0,91.13,91.13A91.23,91.23,0,0,0,137.3,25.35Z"/><circle class="cls-3" cx="137.3" cy="116.48" r="83.06"/><path class="cls-2" d="M137.3,37.46a79,79,0,1,1-79,79,79,79,0,0,1,79-79m0-4a83,83,0,1,0,83,83,83.07,83.07,0,0,0-83-83Z"/><path class="cls-2" d="M137.3,37.46a79,79,0,1,1-79,79,79,79,0,0,1,79-79m0-4a83,83,0,1,0,83,83,83.07,83.07,0,0,0-83-83Z"/><g class="cls-4"><path class="cls-5" d="M153.28,156.21a30.78,30.78,0,1,0-40.68,12.14,30.77,30.77,0,0,0,26.71,46.06"/><path class="cls-6" d="M60.42,16.5A41.91,41.91,0,0,0,19.94,5.65,41.83,41.83,0,0,0,30.78,46.14L148,163.4l29.64-29.64Z"/><path class="cls-6" d="M207.13,104.3l-29.64,29.64L60.24,16.69l0,0a36.57,36.57,0,0,1,55.12-3.95l.11-.1Z"/><path class="cls-6" d="M75.59,4.73A19.25,19.25,0,0,1,73.82,29.9"/><polyline class="cls-6" points="89.22 2.2 105.61 18.59 100.59 23.6 80.55 3.55"/><polygon class="cls-6" points="122.47 48.77 117.46 53.79 135.31 81.66 160.06 106.41 165.07 101.4 170.08 96.39 122.47 48.77"/><rect class="cls-5" x="193.09" y="70" width="28.35" height="28.35" transform="translate(120.23 -121.9) rotate(45)"/><polygon class="cls-6" points="187.22 84.18 167.18 64.13 207.27 64.13 187.22 84.18"/><polygon class="cls-7" points="200.44 159.37 176.18 183.63 164.04 171.5 154.34 156.94 173.75 137.53 188.31 147.24 200.44 159.37"/><polygon class="cls-8" points="177.82 133.47 202.08 109.2 214.21 121.34 221.97 137.83 206.45 153.36 189.95 145.6 177.82 133.47"/><line class="cls-7" x1="214.21" y1="121.34" x2="164.05" y2="171.5"/></g><circle class="cls-9" cx="241.82" cy="40.67" r="11.32"/><circle class="cls-10" cx="15" cy="129.48" r="13"/><line class="cls-11" x1="251.6" y1="194.98" x2="230.04" y2="173.42"/><line class="cls-11" x1="230.04" y1="194.98" x2="251.6" y2="173.42"/><line class="cls-12" x1="240.82" y1="199.45" x2="240.82" y2="168.95"/><line class="cls-12" x1="225.57" y1="184.2" x2="256.07" y2="184.2"/></g></g></svg>