<svg xmlns="http://www.w3.org/2000/svg" xmlns:xlink="http://www.w3.org/1999/xlink" viewBox="0 0 269 219.25"><defs><style>.cls-1,.cls-10,.cls-11,.cls-12,.cls-3,.cls-6,.cls-7,.cls-9{fill:none;}.cls-2{fill:#f94616;}.cls-11,.cls-12,.cls-3,.cls-5,.cls-6{stroke:#f94616;}.cls-3{stroke-miterlimit:10;stroke-width:8px;stroke-dasharray:5.02 5.02;}.cls-4{clip-path:url(#clip-path);}.cls-5{fill:#fff;}.cls-10,.cls-11,.cls-12,.cls-5,.cls-6,.cls-7,.cls-9{stroke-linecap:round;stroke-linejoin:round;}.cls-5,.cls-6,.cls-7,.cls-9{stroke-width:4px;}.cls-7{stroke:#faf49a;}.cls-8{fill:#bce4fa;}.cls-10,.cls-9{stroke:#000;}.cls-10,.cls-11,.cls-12{stroke-width:6px;}.cls-12{stroke-dasharray:13.1 0;}</style><clipPath id="clip-path"><path class="cls-1" d="M230,128.12a82.13,82.13,0,0,1-138.25,60,82.17,82.17,0,0,1-18.23-95.1A40,40,0,0,1,46.9,81.32l-.1-.11-6.58-7.63a40.24,40.24,0,1,1,56-55.65l6,5a40.44,40.44,0,0,1,13.06,25.4h2.15A2,2,0,0,1,121,49c0,.14.07.29.1.43l.66.82A82.17,82.17,0,0,1,230,128.12Z"/></clipPath></defs><title>vision</title><g id="Capa_2" data-name="Capa 2"><g id="Capa_3" data-name="Capa 3"><path class="cls-2" d="M147.87,41a87.13,87.13,0,1,1-87.12,87.12A87.13,87.13,0,0,1,147.87,41m0-4A91.13,91.13,0,1,0,239,128.12,91.23,91.23,0,0,0,147.87,37Z"/><circle class="cls-3" cx="147.87" cy="128.12" r="83.06"/><path class="cls-2" d="M147.87,49.11a79,79,0,1,1-79,79,79,79,0,0,1,79-79m0-4a83,83,0,1,0,83,83,83.07,83.07,0,0,0-83-83Z"/><g class="cls-4"><polyline class="cls-5" points="129.21 126.67 82.24 97.99 82.24 90.48 113.52 50.33 119.32 50.33 160.07 100.8"/><path class="cls-6" d="M119.1,49.5A38.27,38.27,0,0,1,82.24,98"/><path class="cls-5" d="M132.2,66.73A38.29,38.29,0,0,1,101,109.44"/><rect class="cls-5" x="129.21" y="116.57" width="38.93" height="28.76"/><rect class="cls-6" x="179.66" y="169.06" width="19.75" height="33" transform="translate(-75.7 188.37) rotate(-45)"/><rect class="cls-5" x="168.61" y="74.59" width="19.75" height="37.01" transform="translate(-13.55 153.48) rotate(-45)"/><rect class="cls-6" x="97.69" y="169.65" width="19.75" height="33" transform="translate(163.14 -21.54) rotate(45)"/><path class="cls-5" d="M41.59,72.11l6.72,7.79A38.25,38.25,0,1,0,101,24.48l-6.24-5.16"/><circle class="cls-5" cx="62.75" cy="40.25" r="38.25"/><circle class="cls-5" cx="62.75" cy="39.91" r="28.72"/><circle class="cls-6" cx="148.67" cy="116.57" r="19.46"/><polygon class="cls-5" points="168.14 164.67 129.21 164.67 132.98 155 129.21 145.33 168.14 145.33 164.36 155 168.14 164.67"/><line class="cls-5" x1="132.98" y1="155" x2="164.36" y2="155"/><rect class="cls-5" x="129.21" y="164.67" width="38.93" height="28.83"/><circle class="cls-6" cx="177.86" cy="173.89" r="9.88"/><circle class="cls-6" cx="165.4" cy="80.01" r="9.88"/><circle class="cls-6" cx="119.24" cy="174.49" r="9.88"/><line class="cls-5" x1="164.46" y1="80.96" x2="153.19" y2="92.22"/><line class="cls-5" x1="167.96" y1="114" x2="176.69" y2="105.27"/></g><circle class="cls-7" cx="13.5" cy="108" r="11.5"/><circle class="cls-8" cx="251.75" cy="183.75" r="10.25"/><line class="cls-9" x1="251.75" y1="38.5" x2="251.75" y2="69"/><line class="cls-9" x1="267" y1="53.75" x2="236.5" y2="53.75"/><line class="cls-10" x1="262.53" y1="42.97" x2="240.97" y2="64.53"/><line class="cls-10" x1="262.53" y1="64.53" x2="240.97" y2="42.97"/><path class="cls-11" d="M48,39.91c0-.17,0-.34,0-.5"/><path class="cls-12" d="M51,31a14.76,14.76,0,0,1,11.25-5.83"/><path class="cls-11" d="M62.25,25.16h.5"/></g></g></svg>